<?xml version="1.0" standalone="no"?>
<!DOCTYPE svg PUBLIC "-//W3C//DTD SVG 1.1//EN" "http://www.w3.org/Graphics/SVG/1.1/DTD/svg11.dtd" >
<svg xmlns="http://www.w3.org/2000/svg" xmlns:xlink="http://www.w3.org/1999/xlink" version="1.1">
<metadata></metadata>
<defs>
<font id="europeitalic" horiz-adv-x="1411" >
<font-face units-per-em="2048" ascent="1638" descent="-410" />
<missing-glyph horiz-adv-x="487" />
<glyph horiz-adv-x="0" />
<glyph unicode="&#xd;" horiz-adv-x="0" />
<glyph unicode=" "  horiz-adv-x="487" />
<glyph unicode="&#x09;" horiz-adv-x="487" />
<glyph unicode="&#xa0;" horiz-adv-x="487" />
<glyph unicode="!" horiz-adv-x="549" d="M186 0l37 209h170l-37 -209h-170zM272 422l182 1112h189l-223 -1112h-148z" />
<glyph unicode="&#x22;" horiz-adv-x="758" d="M307 922l82 612h191l-140 -612h-133zM645 922l84 612h191l-138 -612h-137z" />
<glyph unicode="#" horiz-adv-x="1390" d="M238 532l30 92h285l82 256h-287l33 97h285l137 419h96l-135 -419h270l134 419h96l-136 -419h296l-34 -97h-292l-82 -256h292l-28 -92h-293l-147 -456h-94l145 456h-271l-145 -456h-98l147 456h-286zM649 624h271l82 256h-273z" />
<glyph unicode="$" horiz-adv-x="1407" d="M119 270q0 56 12 134l11 55h172q-18 -100 -19 -166q0 -76 29.5 -112t91.5 -47.5t190 -14.5h58l106 583q-164 0 -270 17.5t-173 81t-67 190.5q0 45 10 107q34 182 111 276.5t194 127t297 32.5h48l24 142h129l-25 -142q173 0 271.5 -17t153.5 -77t55 -184q0 -58 -16 -152 h-170q14 77 14 133q0 85 -48 120t-172 35h-114l-96 -540q184 0 287 -16t165 -77t62 -191q0 -64 -14 -136q-33 -184 -106.5 -281t-192 -132t-308.5 -35h-49l-28 -156h-130l27 152q-148 0 -229.5 5.5t-149.5 33t-104.5 87.5t-36.5 164zM438 1032q0 -77 31.5 -116t92 -51.5 t161.5 -12.5h73l97 540h-76q-130 -9 -192 -21.5t-108 -64.5q-47 -52 -67 -166q-12 -64 -12 -108zM792 119h60q118 0 196 24t129 87.5t73 181.5q12 64 12 112q0 80 -35.5 118t-98.5 48q-64 10 -192 14h-37z" />
<glyph unicode="%" horiz-adv-x="1808" d="M240 936q0 50 12 116l34 200q22 118 59 177t113 84t216 25q110 0 173 -15t90 -51.5t27 -101.5q0 -36 -14 -118l-34 -200q-21 -116 -57.5 -176.5t-111 -86t-213.5 -25.5q-112 0 -175.5 16t-91 53t-27.5 103zM340 958q0 -52 24.5 -76t65 -29t121.5 -5q84 0 132 10t81 48 t47 118l45 252q6 36 6 62q0 76 -47 96t-155 20q-86 0 -136 -10.5t-84 -49t-49 -118.5l-47 -264q-4 -20 -4 -54zM350 0l1311 1534h109l-1316 -1534h-104zM1157 172q1 50 13 112l34 200q21 117 58.5 177.5t113.5 85.5t216 25q110 0 174 -16.5t92 -53.5t28 -102q0 -38 -14 -116 l-35 -200q-23 -116 -59 -176t-111 -85t-215 -25q-114 0 -177 16.5t-90.5 53.5t-27.5 104zM1258 190q0 -52 24 -75t64 -28t120 -5q88 0 136 9.5t80 47t46 117.5l48 254q6 36 6 62q0 75 -48 95.5t-159 20.5q-84 0 -133.5 -11t-83.5 -49t-48 -118l-46 -264q-6 -30 -6 -56z" />
<glyph unicode="&#x26;" horiz-adv-x="1609" d="M200 305q0 77 19 183q26 152 82 234t126.5 113t172.5 45q-54 54 -75 92.5t-21 92.5q0 41 12 103q26 150 95 226t169.5 100t253.5 24q139 0 221.5 -18t126.5 -72t44 -156q0 -58 -13 -127q-15 -72 -19 -84h-167q1 12 4 32t4 23q15 94 15 123q0 62 -26 89.5t-76 33.5t-165 6 q-86 0 -140.5 -9t-95 -48t-55.5 -119q-8 -54 -8 -70q0 -50 22 -88t72 -84l488 -483q20 83 24 111q10 56 16 98h170q-18 -102 -22 -134q-20 -107 -55 -204l227 -219l-114 -119l-193 186q-60 -92 -146 -136t-174 -54q-89 -10 -219 -10q-169 0 -262.5 7t-166 36t-112 95 t-39.5 181zM370 309q0 -70 27 -107.5t89 -53.5q64 -15 178 -15h149q94 0 162.5 8t132.5 42.5t96 107.5l-512 495q-90 -21 -133.5 -35t-76 -40.5t-53.5 -76.5t-38 -144q-21 -126 -21 -181z" />
<glyph unicode="'" horiz-adv-x="420" d="M305 922l84 612h195l-140 -612h-139z" />
<glyph unicode="(" horiz-adv-x="637" d="M152 26q0 78 22 232l129 719q28 156 54.5 249t77.5 167t141 114.5t231 40.5l-27 -145q-92 0 -145 -25.5t-79 -71.5t-40 -118t-28 -146l-154 -850q-16 -99 -16 -145q0 -72 34 -109.5t125 -37.5l33 2l-24 -146q-12 0 -27.5 -1t-22.5 -1q-159 0 -222 70q-62 70 -62 202z" />
<glyph unicode=")" horiz-adv-x="637" d="M84 -244q12 0 25 -1t20 -1q153 0 241 65t129 168t77 271l128 719q36 207 36 291q0 92 -30 153t-103 94t-201 33l-27 -145q110 0 152.5 -36.5t42.5 -110.5q0 -22 -4 -52t-14 -93t-11 -69l-154 -850q-20 -100 -39.5 -157t-69.5 -96q-48 -39 -140 -39l-34 2z" />
<glyph unicode="*" horiz-adv-x="1407" d="M514 1210l58 109l294 -115l60 332h112l-59 -332l334 117l16 -117l-333 -112l140 -271l-104 -65l-139 278l-256 -278l-78 65l246 271z" />
<glyph unicode="+" horiz-adv-x="1151" d="M186 738l17 92h471l80 444h98l-80 -444h475l-16 -92h-475l-80 -445h-98l80 445h-472z" />
<glyph unicode="," horiz-adv-x="465" d="M82 -223l16 86q57 3 83.5 27t35.5 82q4 12 4 28h-75l38 211h180l-40 -225q-18 -104 -60.5 -158t-136.5 -54q-8 0 -21 1.5t-24 1.5z" />
<glyph unicode="-" horiz-adv-x="1186" d="M178 534l16 97h1010l-16 -97h-1010z" />
<glyph unicode="." horiz-adv-x="456" d="M137 0l37 207h182l-36 -207h-183z" />
<glyph unicode="/" horiz-adv-x="1487" d="M-24 -226l1498 1760h130l-1504 -1760h-124z" />
<glyph unicode="0" horiz-adv-x="1407" d="M158 436q0 149 34 336q56 315 151.5 482.5t246 231.5t391.5 64q192 0 310.5 -38t177.5 -136.5t59 -273.5q0 -130 -35 -330q-43 -239 -108 -391.5t-157.5 -239.5t-221 -123t-308.5 -36q-144 0 -242 21t-165.5 73t-100 139.5t-32.5 220.5zM326 444q0 -93 22 -153t70 -95.5 t123.5 -50t185.5 -14.5q151 0 248 29t161 98.5t106.5 190.5t78.5 323q37 204 37 326t-39 187t-125 91q-88 25 -240 25q-204 0 -311.5 -49.5t-168 -180.5t-110.5 -399q-38 -216 -38 -328z" />
<glyph unicode="1" horiz-adv-x="1407" d="M432 1071l508 463h240l-277 -1534h-161l252 1403l-472 -432z" />
<glyph unicode="2" d="M125 0l51 286q24 130 76 212t130 126t175 64t237 33q170 17 222 25t101.5 38t82 95t54.5 184q12 63 12 111q0 122 -77 174.5t-249 52.5q-160 0 -253 -36t-137 -105q-44 -70 -66 -185l-11 -63h-166q28 156 74.5 259t120.5 164t187 88t282 27q240 0 352.5 -78t112.5 -260 q0 -74 -14 -151q-26 -146 -69 -234.5t-110.5 -138t-164 -74t-261.5 -42.5q-158 -17 -214.5 -25.5t-113.5 -35t-94 -83t-55 -158.5l-22 -120h940l-27 -150h-1106z" />
<glyph unicode="3" d="M180 289q0 49 12 119q6 40 19 92h168l-17 -90q-10 -58 -10 -94q0 -70 33 -109t109 -55q74 -17 212 -17q136 0 218 13.5t128.5 46.5t71.5 89q24 56 42 156q8 44 8 86q0 101 -64 142.5t-209 41.5h-213l29 150h197q104 0 161 10t92.5 38t56 82t38.5 150q6 34 6 66 q0 96 -76 144.5t-258 48.5q-148 0 -234.5 -33.5t-130.5 -104.5t-67 -198h-164q25 135 70.5 227.5t118.5 149.5t178 82.5t253 25.5q170 0 278 -35t158 -104.5t50 -171.5q0 -35 -10 -97q-22 -124 -61.5 -196t-100 -108t-154.5 -50q124 -16 178 -71t54 -154q0 -55 -12 -119 q-32 -184 -101.5 -281.5t-198 -136t-356.5 -38.5q-162 0 -270 22t-170 88.5t-62 192.5z" />
<glyph unicode="4" d="M125 352l37 205l946 977h258l-186 -1034h231l-27 -148h-231l-63 -352h-164l63 352h-864zM295 500h721l166 922z" />
<glyph unicode="5" horiz-adv-x="1407" d="M205 278q0 64 16 162h170q-16 -92 -16 -141q0 -67 32 -102t108.5 -48.5t219.5 -13.5q107 0 178.5 14t124 50t86.5 100.5t52 167.5q24 142 24 211q0 124 -66 173.5t-231 49.5q-160 0 -243.5 -13t-121.5 -42t-63 -88h-163l136 768h1032l-26 -150h-868l-82 -452 q77 82 179.5 104t244.5 22q235 0 343.5 -77t108.5 -254q0 -61 -16 -156q-30 -174 -74 -282.5t-115 -172.5t-183 -93t-284 -29q-132 0 -219 8t-151.5 37t-98.5 89q-34 58 -34 158z" />
<glyph unicode="6" d="M190 312q0 100 29 258l39 220q46 249 95.5 392.5t125 223.5t196.5 112t316 32q162 0 265 -16.5t163.5 -73t60.5 -170.5q0 -56 -10 -104q-2 -16 -10 -48h-164q1 6 4 20q4 14 4 16q8 56 9 71q0 66 -34.5 99.5t-108.5 45.5q-74 11 -206 11q-131 0 -213.5 -18t-138 -64.5 t-91.5 -132.5t-62 -228l-31 -168q34 54 78 85t131 47t243 16q161 0 263.5 -30.5t153.5 -102t51 -193.5q0 -74 -15 -149q-25 -140 -74 -232.5t-127 -146.5t-187 -77t-263 -23q-182 0 -285.5 24t-155 95t-51.5 209zM358 344q0 -84 36.5 -130t111 -63.5t202.5 -17.5 q150 0 239.5 29t140 99.5t73.5 199.5q13 67 13 117q0 122 -79 167t-269 45q-155 0 -245 -28t-139 -98.5t-72 -200.5q-12 -68 -12 -119z" />
<glyph unicode="7" d="M280 0l1056 1382h-978l29 152h1119l-40 -217l-980 -1317h-206z" />
<glyph unicode="8" d="M180 278q0 72 18 170q18 100 52 168.5t99 114t177 67.5q-109 22 -152 74q-42 52 -42 136q0 46 14 128q28 156 96 245.5t196 128t337 38.5q264 0 374.5 -63t110.5 -219q0 -56 -12 -128q-18 -98 -47 -162t-91 -110t-170 -68q115 -20 165.5 -82.5t50.5 -164.5 q0 -43 -10 -111q-24 -132 -63.5 -217t-110 -137t-186.5 -76t-298 -24q-192 0 -302.5 29t-158 92t-47.5 171zM354 318q0 -71 34 -110.5t111 -56t218 -16.5q126 0 206.5 13.5t128.5 45.5t74 88q28 55 44 146q10 64 10 102q0 70 -33.5 110.5t-111.5 58.5t-216 18 q-126 0 -205.5 -15t-128.5 -48.5t-75 -87.5q-28 -55 -44 -144q-12 -62 -12 -104zM508 1022q0 -64 29.5 -97t101 -47t207.5 -14q170 0 255.5 26t119.5 80t55 166q8 44 8 88q0 62 -30.5 100.5t-105.5 56.5t-206 18q-157 0 -242 -26t-123.5 -81.5t-56.5 -155.5 q-12 -68 -12 -114z" />
<glyph unicode="9" d="M170 246q0 38 10 100q2 10 5 21t7 26h164q-9 -27 -10 -39q-6 -38 -6 -68q0 -65 34.5 -96.5t108.5 -43t205 -11.5q130 0 214 17.5t139 63t91 131t60 225.5l30 170q-32 -54 -76 -85t-131.5 -47t-244.5 -16q-160 0 -262 30t-152.5 101t-50.5 193q1 73 15 149 q32 182 109 287.5t207 149.5t335 44q176 0 281.5 -25t158.5 -95t53 -204q0 -85 -20 -196l-52 -286q-44 -250 -92.5 -391.5t-125 -222t-195.5 -111.5t-317 -31q-165 0 -267.5 16t-163.5 73t-61 171zM477 954q0 -82 35 -128t110 -65q76 -19 204 -19q155 0 244.5 28t138.5 98.5 t73 200.5q12 70 12 119q0 84 -36 130t-111 63.5t-203 17.5q-148 0 -238 -29t-141 -99.5t-75 -199.5q-12 -71 -13 -117z" />
<glyph unicode=":" horiz-adv-x="456" d="M137 2l39 209h182l-38 -209h-183zM293 864l37 209h182l-37 -209h-182z" />
<glyph unicode=";" horiz-adv-x="459" d="M76 -223l16 86q56 3 83 27q27 26 36 82q4 20 4 28h-75l36 209h180l-38 -223q-18 -104 -60.5 -158t-136.5 -54q-8 0 -21.5 1.5t-23.5 1.5zM295 864l37 209h180l-37 -209h-180z" />
<glyph unicode="&#x3c;" horiz-adv-x="1149" d="M198 692l30 156l1080 471l-32 -181l-870 -368l737 -370l-33 -179z" />
<glyph unicode="=" horiz-adv-x="1151" d="M158 574l16 94h1048l-18 -94h-1046zM217 899l15 95h1048l-16 -95h-1047z" />
<glyph unicode="&#x3e;" horiz-adv-x="1151" d="M116 221l34 179l872 370l-740 370l34 179l911 -473l-27 -154z" />
<glyph unicode="?" horiz-adv-x="1196" d="M316 1057q27 152 61.5 242t93 144.5t152 77.5t241.5 23q152 0 245 -21t143 -81t50 -174q0 -48 -14 -136q-23 -129 -68.5 -212.5t-104.5 -131.5t-117 -73t-164 -61q-106 -38 -134 -172l-6 -40h-168q22 120 50 182.5t84 103.5q58 40 170 81q110 37 164 68t82 83t46 154 q10 62 10 100q0 104 -66 144.5t-222 40.5q-135 0 -203.5 -22.5t-97.5 -71.5t-47 -146l-19 -102h-161zM436 0l37 209h181l-38 -209h-180z" />
<glyph unicode="@" horiz-adv-x="1448" d="M188 379q0 132 38 336q40 220 88 344t124 188.5t191 86.5t313 22q226 0 352 -26t180.5 -94t55.5 -196q0 -94 -29 -248q-38 -208 -81.5 -313t-92.5 -138.5t-119 -33.5t-117 31t-47 94q-80 -131 -300 -131q-92 0 -145.5 26.5t-75 73.5t-21.5 117t20 182q24 134 61.5 216.5 t114 127t205.5 44.5q177 0 219 -105l18 101h112l-95 -525q-10 -66 -10 -84q-1 -79 71 -79q40 0 68 24t57.5 111t59.5 255q35 192 35 266q0 96 -45 139t-147 55q-100 12 -320 12q-190 0 -290 -18t-156 -70.5t-88 -153.5q-32 -102 -70 -306q-42 -232 -42 -329 q0 -84 23.5 -134.5t75.5 -78t136.5 -37.5t219.5 -10q292 1 369 23q40 14 66 52l69 -56q-54 -70 -133 -93q-98 -25 -356 -25q-166 0 -261 9t-163.5 43.5t-103 107t-34.5 197.5zM622 524q0 -76 33.5 -101t116.5 -25q106 0 163 26t83.5 81t44.5 157l19 100q8 44 8 88 q0 76 -42 111t-140 35q-95 0 -142 -22t-73 -82t-50 -192q-21 -108 -21 -176z" />
<glyph unicode="A" horiz-adv-x="1474" d="M53 0l836 1534h247l296 -1534h-182l-58 316h-774l-180 -316h-185zM486 465h678l-170 942z" />
<glyph unicode="B" horiz-adv-x="1417" d="M146 0l276 1534h739q170 0 252 -62t82 -200q0 -52 -12 -117q-28 -148 -78.5 -227.5t-177.5 -122.5q104 -30 146 -82.5t42 -140.5q0 -56 -16 -142q-39 -217 -149 -328.5t-322 -111.5h-782zM342 154h473q144 0 220.5 18t121.5 76.5t67 183.5q14 71 15 129q0 96 -54 125 t-196 29h-545zM471 864h487q116 0 185 24t106 83t57 169q10 60 11 99q0 80 -46.5 111.5t-158.5 31.5h-549z" />
<glyph unicode="C" horiz-adv-x="1358" d="M182 391q0 142 41 371q45 248 103 399.5t143 236.5t205.5 118.5t302.5 33.5q200 0 311.5 -36t155 -110t43.5 -196q-1 -38 -13 -162l-166 2q6 66 7 120q0 91 -28.5 140.5t-106.5 71t-230 21.5q-136 0 -224 -26.5t-149 -95.5t-103 -190.5t-78 -326.5q-38 -204 -38 -332 q0 -91 21 -148.5t64 -90t111 -45.5t169 -13q138 0 226.5 17.5t143.5 58.5t87.5 114t52.5 189h166q-37 -204 -109.5 -317t-212 -162t-381.5 -49q-187 0 -297 33.5t-163.5 122t-53.5 251.5z" />
<glyph unicode="D" horiz-adv-x="1501" d="M146 0l276 1534h708q254 0 356.5 -111t102.5 -321q-1 -140 -37 -336q-32 -178 -75 -311.5t-114.5 -236t-185 -160.5t-278.5 -58h-753zM342 154h502q156 0 257 53t169 187t110 372q30 164 31 280q0 187 -83.5 261.5t-264.5 74.5h-500z" />
<glyph unicode="E" horiz-adv-x="1218" d="M142 0l276 1534h987l-29 -152h-817l-92 -522h780l-29 -150h-780l-100 -556h813l-27 -154h-982z" />
<glyph unicode="F" horiz-adv-x="1116" d="M144 0l276 1534h936l-29 -152h-766l-96 -536h747l-26 -150h-748l-124 -696h-170z" />
<glyph unicode="G" horiz-adv-x="1423" d="M198 402q0 138 42 360q43 234 98.5 381.5t141.5 237t213 128.5t319 39q223 0 341.5 -33.5t162.5 -103t44 -189.5q0 -70 -8 -138h-166q6 56 6 100q0 86 -33.5 132t-119.5 64.5t-254 18.5q-143 0 -234 -26.5t-154 -94.5t-106 -190t-79 -326q-36 -200 -37 -324 q0 -123 38.5 -189t120.5 -91t224 -25t234.5 23.5t152 77t95.5 142t60 228.5l10 56h-491l27 147h664l-34 -179q-36 -199 -88.5 -323t-135 -193.5t-207 -98.5t-312.5 -29q-197 0 -313 39t-169 131t-53 248z" />
<glyph unicode="H" horiz-adv-x="1534" d="M148 0l276 1532h170l-123 -676h897l123 676h170l-277 -1532h-170l128 706h-898l-126 -706h-170z" />
<glyph unicode="I" horiz-adv-x="456" d="M144 2l276 1530h174l-276 -1530h-174z" />
<glyph unicode="J" horiz-adv-x="1153" d="M119 262q0 65 16 160l25 137h168l-21 -113q-14 -88 -14 -130q0 -100 59.5 -139.5t206.5 -39.5q160 0 243.5 72.5t113.5 238.5l196 1086h170l-200 -1112q-26 -142 -84 -237t-171 -148t-295 -53q-155 0 -245.5 29.5t-129 90.5t-38.5 158z" />
<glyph unicode="K" horiz-adv-x="1431" d="M150 0l276 1534h170l-121 -670h153l746 670h230l-838 -742l643 -792h-235l-574 710h-154l-126 -710h-170z" />
<glyph unicode="L" horiz-adv-x="1147" d="M158 0l276 1534h172l-248 -1378h774l-28 -156h-946z" />
<glyph unicode="M" horiz-adv-x="1974" d="M160 0l276 1536h285l303 -1317l782 1317h281l-277 -1536h-170l254 1411l-833 -1411h-147l-332 1396l-252 -1396h-170z" />
<glyph unicode="N" horiz-adv-x="1601" d="M156 0l276 1534h270l613 -1401l251 1401h170l-276 -1534h-270l-614 1386l-250 -1386h-170z" />
<glyph unicode="O" horiz-adv-x="1456" d="M182 385q0 -162 54.5 -248.5t172 -119.5t320.5 -33q202 0 330.5 32t213 115t140.5 234q57 151 101 401q44 248 44 387q0 122 -30 198.5t-94.5 120t-164.5 61t-255 17.5q-204 0 -332 -32t-213 -115t-140.5 -232t-102.5 -405q-44 -230 -44 -381zM354 406q0 116 44 360 q40 220 76.5 338.5t95 183.5t153.5 89t262 24q156 0 241.5 -21t122.5 -78.5t37 -167.5q0 -120 -44 -368q-38 -216 -76 -335t-96 -184t-153 -89.5t-259 -24.5q-158 0 -242.5 21.5t-123.5 79.5q-38 60 -38 172z" />
<glyph unicode="P" horiz-adv-x="1366" d="M146 0l276 1534h731q180 0 262 -69t82 -218q-1 -63 -17 -153q-34 -190 -100 -296t-185 -152t-317 -46h-454l-108 -600h-170zM450 750h408q150 0 234 21.5t135 88t75 201.5q16 89 17 147q0 92 -48 134t-167 42h-539z" />
<glyph unicode="Q" horiz-adv-x="1521" d="M184 385q0 150 44 381q46 254 102.5 404t141 232t211.5 114t329 32q208 0 326.5 -32t173 -118t54.5 -247q0 -154 -42 -385q-70 -402 -117 -492l113 -88l-90 -116l-101 78q-74 -73 -158.5 -108.5t-184 -45.5t-253.5 -10q-205 0 -322 33t-172 120t-55 248zM356 406 q0 -111 38 -169.5t122.5 -80t241.5 -21.5q136 0 213.5 7t134.5 29q56 23 98 67l-422 309l100 121l392 -293q18 43 78 391q42 242 42 356q0 115 -39 174.5t-125.5 81t-246.5 21.5q-166 0 -259.5 -23.5t-151.5 -88t-96 -183.5q-36 -118 -76 -338q-44 -244 -44 -360z" />
<glyph unicode="R" horiz-adv-x="1431" d="M144 0l276 1534h729q194 0 287.5 -73t93.5 -237q0 -46 -14 -138q-24 -124 -52 -198t-95 -129t-189 -77q196 -14 196 -203q0 -43 -8 -90l-70 -389h-172l64 348q8 58 8 80q0 102 -62 144t-192 42h-520l-110 -614h-170zM450 760h502q122 0 197 23.5t120 86t67 178.5 q12 70 12 124q0 108 -55 158t-173 50h-559z" />
<glyph unicode="S" horiz-adv-x="1288" d="M131 272q1 58 13 130l14 71h170q-20 -118 -21 -170q0 -73 33.5 -109t111 -47.5t226.5 -11.5q134 0 217 16.5t129 50.5t69 87t37 137q12 60 13 100q0 63 -32.5 98.5t-108.5 51.5q-78 16 -220 18q-176 9 -284 36t-166 91.5t-58 182.5q0 54 12 118q21 116 68.5 198 t124.5 132.5t188 74t265 23.5q163 0 266.5 -23.5t159 -89t55.5 -183.5q0 -54 -12 -122l-2 -22h-168q12 62 12 108q0 70 -31.5 109.5t-104.5 56.5t-202 17q-126 0 -207 -14t-129 -45.5t-73 -80.5q-26 -49 -40 -129q-8 -40 -8 -82q0 -70 40.5 -108t136 -57.5t268.5 -28.5 q146 -8 237.5 -35t140 -89.5t48.5 -170.5q-1 -55 -13 -121q-24 -136 -70 -224t-121 -138t-187 -71t-276 -21q-134 0 -225 9t-158 37.5t-102.5 86t-35.5 153.5z" />
<glyph unicode="T" horiz-adv-x="1231" d="M272 1378l29 156h1171l-28 -156h-498l-248 -1378h-172l248 1378h-502z" />
<glyph unicode="U" horiz-adv-x="1507" d="M219 289q1 81 17 165l194 1080h170l-194 -1075q-14 -79 -15 -139q0 -78 35 -117t116.5 -52.5t237.5 -13.5q194 0 287 22.5t136 88.5t69 211l194 1075h170l-194 -1080q-30 -166 -86 -262t-138 -141t-188 -57t-280 -12q-144 0 -234 8t-158 38t-103.5 93t-35.5 168z" />
<glyph unicode="V" horiz-adv-x="1317" d="M254 1534h184l238 -1397l731 1397h187l-820 -1534h-250z" />
<glyph unicode="W" horiz-adv-x="2357" d="M312 1534h180l166 -1401l667 1401h256l158 -1401l681 1401h183l-762 -1534h-262l-153 1380l-662 -1380h-256z" />
<glyph unicode="X" horiz-adv-x="1405" d="M28 0h210l602 704l348 -704h208l-405 794l637 740h-204l-554 -656l-315 656h-205l371 -740z" />
<glyph unicode="Y" horiz-adv-x="1378" d="M318 1534h190l332 -733l598 733h194l-741 -893l-115 -641h-172l115 641z" />
<glyph unicode="Z" horiz-adv-x="1304" d="M56 0l26 152l1182 1230h-930l28 152h1146l-32 -164l-1185 -1216h987l-26 -154h-1196z" />
<glyph unicode="[" horiz-adv-x="637" d="M84 -232l318 1766h392l-24 -131h-223l-271 -1501h224l-23 -134h-393z" />
<glyph unicode="\" horiz-adv-x="1487" d="M438 1534h130l864 -1760h-126z" />
<glyph unicode="]" horiz-adv-x="637" d="M78 -232l22 134h224l270 1499h-224l26 133h392l-317 -1766h-393z" />
<glyph unicode="^" horiz-adv-x="1151" d="M230 860l522 676h202l281 -676h-170l-235 555l-432 -555h-168z" />
<glyph unicode="_" horiz-adv-x="1151" d="M-51 -282l21 116h1150l-20 -116h-1151z" />
<glyph unicode="`" horiz-adv-x="1151" d="M639 1407l101 113l260 -232l-68 -84z" />
<glyph unicode="a" horiz-adv-x="1165" d="M146 219q0 41 10 105q24 132 86 203.5t154 96.5t228 25q124 0 192 -12.5t98 -38.5t46 -74l29 154q17 90 17 143q0 65 -27 97.5t-85.5 43.5t-166.5 11q-100 0 -154.5 -13.5t-83.5 -48t-45 -102.5l-4 -31h-166q20 107 62.5 171t104 94.5t134.5 39.5t183 9q142 0 230 -19 t136 -75t48 -162q0 -56 -13 -124l-129 -712h-154l32 135q-50 -68 -98 -100.5t-114 -43.5t-178 -11q-190 0 -281 49t-91 190zM316 258q0 -84 50 -118t164 -34q128 0 201.5 11t125.5 56t69 141q8 54 8 75q0 60 -31 88.5t-98.5 37.5t-200.5 9q-132 0 -197 -37t-83 -147 q-8 -42 -8 -82z" />
<glyph unicode="b" horiz-adv-x="1163" d="M135 0l277 1532h164l-105 -582q70 78 147.5 111t227.5 33q128 0 203 -36.5t106 -103t31 -164.5q0 -94 -29 -258q-35 -194 -84 -309t-154 -179t-291 -64q-96 0 -154 14t-94 47t-66 96l-19 -137h-160zM362 282q0 -66 24 -102.5t80 -52t156 -15.5q107 0 171.5 26t100.5 77 t55 121t42 194q29 165 29 236q0 68 -23 110t-78 63t-153 21t-162 -25t-102 -77t-60.5 -127.5t-45.5 -200.5q-34 -172 -34 -248z" />
<glyph unicode="c" horiz-adv-x="1126" d="M176 291q0 103 27 243q38 214 100.5 334t170 172t286.5 52q199 0 297 -57t98 -203q0 -34 -6 -74l-6 -35h-156q11 56 11 90q0 80 -56.5 112.5t-206.5 32.5q-124 0 -190.5 -32t-104.5 -119q-40 -87 -72 -269q-24 -140 -24 -220q0 -81 24.5 -125.5t77 -62.5t142.5 -18 q127 0 192.5 23t99.5 80t62 174h158q-30 -126 -71.5 -205.5t-102 -123.5t-147.5 -62t-216 -18q-142 0 -225.5 29t-122.5 97t-39 185z" />
<glyph unicode="d" horiz-adv-x="1179" d="M170 276q0 84 28 256q26 141 55.5 236.5t83 169.5t145.5 115q90 41 226 41q150 0 217.5 -33t110.5 -111l104 582h164l-276 -1532h-160l31 137q-54 -63 -102 -96t-111 -47q-64 -14 -160 -14q-136 0 -214 34t-110 98t-32 164zM334 299q0 -96 54 -141q56 -46 194 -46 q145 0 213.5 34.5t99.5 115t65 268.5q26 138 27 220q0 111 -55 160q-54 50 -192 50q-140 0 -212.5 -44.5t-102.5 -127.5q-31 -84 -61 -258q-30 -170 -30 -231z" />
<glyph unicode="e" horiz-adv-x="1145" d="M176 293q0 87 27 245q30 160 75.5 266t112.5 169t159.5 91t219.5 28q206 0 301 -75t95 -249q0 -76 -19 -180l-17 -82h-772q-20 -131 -20 -197q0 -80 25 -122.5t80 -60.5t153 -18q97 0 157.5 9t96.5 29t54 55t28 92l6 35h162q-20 -113 -62 -182.5t-107 -105.5t-149 -48 t-210 -12q-144 0 -230 28.5t-126 96.5t-40 188zM383 631h608q15 70 15 131q0 108 -60 154q-58 46 -198 46q-116 0 -188 -32t-113 -104t-64 -195z" />
<glyph unicode="f" horiz-adv-x="618" d="M180 0l170 944h-164l23 131h163l32 160q22 122 71 191.5t129 98.5t201 29q17 0 49 -3t49 -3l-25 -133q-37 7 -114 7q-92 0 -135 -41t-59 -134l-34 -172h281l-23 -131h-280l-170 -944h-164z" />
<glyph unicode="g" horiz-adv-x="1161" d="M104 -250q0 52 12 123h152q-6 -44 -6 -80q0 -87 47 -114t168 -27q130 0 201.5 17t115.5 73.5t66 173.5l39 215q-62 -90 -158.5 -120.5t-222.5 -30.5q-127 0 -204 36t-109.5 104t-32.5 169q0 81 20 205q28 152 58 252t85 178.5t151 122t243 43.5q120 0 200 -34t121 -122 l17 137h155l-204 -1141q-30 -168 -88.5 -255t-164.5 -122t-290 -35q-101 2 -165 11t-111 33.5t-71 70t-24 117.5zM336 303q0 -100 55.5 -145.5t198.5 -45.5q130 0 201.5 44t107 132.5t63.5 249.5q26 138 27 218q0 107 -56.5 153.5t-197.5 46.5q-108 0 -172.5 -23t-99 -71 t-53.5 -118q-18 -70 -44 -206q-30 -174 -30 -235z" />
<glyph unicode="h" horiz-adv-x="1179" d="M133 0l277 1532h164l-105 -580q64 89 150 114q87 26 217 26q125 0 200.5 -23t111.5 -77t36 -148q0 -68 -14 -148l-126 -696h-164l132 727q10 56 10 90q0 87 -50 116t-174 29q-102 0 -169 -19t-109 -59.5t-68 -105t-44 -166.5l-111 -612h-164z" />
<glyph unicode="i" horiz-adv-x="440" d="M140 0l192 1073h164l-193 -1073h-163zM383 1358l33 176h164l-33 -176h-164z" />
<glyph unicode="j" horiz-adv-x="475" d="M-74 -406l21 113q14 0 20 -2q88 0 119.5 48.5t48.5 148.5l211 1173h164l-211 -1173q-24 -145 -91.5 -232.5t-205.5 -87.5q-34 0 -76 12zM398 1358l32 178h164l-33 -178h-163z" />
<glyph unicode="k" horiz-adv-x="1073" d="M170 0l276 1534h162l-162 -893h66l465 432h197l-546 -493l437 -580h-213l-362 516h-66l-92 -516h-162z" />
<glyph unicode="l" horiz-adv-x="440" d="M140 0l276 1534h164l-277 -1534h-163z" />
<glyph unicode="m" horiz-adv-x="1880" d="M137 0l193 1073h154l-30 -161q130 182 388 182q119 0 206.5 -41t102.5 -141q135 182 399 182q115 0 188 -26t107.5 -81t34.5 -145q0 -46 -14 -132l-127 -710h-164l129 721q10 62 10 96q0 80 -47 111.5t-161 31.5q-177 0 -257 -68t-102 -182l-127 -710h-164l127 708 q8 52 8 103q0 86 -45 117.5t-170 31.5q-118 0 -190 -36t-111.5 -110t-62.5 -198l-111 -616h-164z" />
<glyph unicode="n" horiz-adv-x="1186" d="M135 0l193 1073h154l-26 -137q74 90 171 123t225 33q182 0 260 -53.5t78 -186.5q0 -68 -14 -142l-128 -710h-164l126 694q12 69 12 121q0 83 -49 113t-179 30q-160 0 -254 -70t-122 -230l-119 -658h-164z" />
<glyph unicode="o" horiz-adv-x="1153" d="M174 291q0 83 26 243q40 224 105.5 344t174 167t292.5 47q145 0 232 -28t128.5 -96.5t41.5 -189.5q0 -87 -27 -242q-40 -224 -106 -343t-175.5 -166t-293.5 -47q-144 0 -230 27.5t-127 95t-41 188.5zM340 314q0 -82 26 -126t80.5 -60t149.5 -16q127 0 197 31.5t113 121 t75 271.5q25 134 25 220q0 82 -26 125.5t-81 60t-151 16.5q-127 0 -196.5 -32t-111.5 -122t-74 -270q-26 -148 -26 -220z" />
<glyph unicode="p" horiz-adv-x="1173" d="M56 -463l276 1536h160l-31 -137q133 158 371 158q201 0 280.5 -75t79.5 -227q0 -84 -28 -252q-35 -189 -84 -306t-151.5 -185.5t-281.5 -68.5q-121 0 -202 29.5t-119 113.5l-107 -586h-163zM377 318q0 -108 52.5 -157t186.5 -49q140 0 213.5 45t104.5 129q32 82 64 256 q28 156 28 228q0 99 -55 144.5t-195 45.5q-108 0 -173 -23t-101.5 -72t-55.5 -118t-44 -205q-24 -152 -25 -224z" />
<glyph unicode="q" horiz-adv-x="1173" d="M176 278q0 100 31 262q35 194 84 310t154 180t290 64q116 0 193.5 -35t119.5 -123l19 137h160l-277 -1536h-164l107 586q-68 -84 -162.5 -113.5t-216.5 -29.5q-188 0 -263 76t-75 222zM342 303q0 -67 22.5 -108t78 -62t151.5 -21q129 0 201 45t108 134t65 251 q30 166 30 232t-23 107t-79 60t-154 19q-139 0 -210.5 -44.5t-99.5 -125.5q-30 -80 -60 -248q-30 -162 -30 -239z" />
<glyph unicode="r" horiz-adv-x="905" d="M135 0l193 1073h160l-29 -125q119 152 323 152q136 0 200 -55t64 -169q0 -50 -8 -96l-12 -63h-160l14 79q6 34 7 56q0 64 -38.5 89t-123.5 25q-251 0 -297 -251l-129 -715h-164z" />
<glyph unicode="s" horiz-adv-x="1100" d="M152 217q0 55 12 121h154q-8 -44 -9 -82q0 -88 58.5 -119t202.5 -31q122 0 186 16t97 58t48 127q4 25 4 35q0 67 -60.5 99.5t-199.5 37.5q-196 8 -301.5 55.5t-105.5 182.5q0 29 6 67q20 112 72 179t151 98t256 31q200 0 306.5 -40.5t106.5 -162.5q0 -23 -6 -55l-6 -40 h-162q6 28 6 52q0 62 -54 90t-197 28q-114 0 -176.5 -15t-92.5 -50t-42 -98q-6 -33 -6 -59q0 -44 24.5 -68.5t86 -36t177.5 -17.5q187 -8 284 -62t97 -186q0 -18 -8 -75q-23 -128 -82 -197.5t-159 -94.5t-265 -25q-144 0 -229.5 18t-129.5 69t-44 150z" />
<glyph unicode="t" horiz-adv-x="794" d="M182 942l23 131h141l47 260h164l-47 -260h414l-23 -131h-413l-120 -658q-8 -40 -8 -77q0 -50 29 -70.5t101 -20.5q94 0 129 35t53 133l16 95h154q-28 -162 -63 -243.5t-106 -116.5t-208 -35q-147 0 -210 42.5t-63 145.5q0 50 13 112l119 658h-142z" />
<glyph unicode="u" horiz-adv-x="1169" d="M186 213q0 41 10 109l136 751h162l-130 -715q-10 -65 -10 -98q0 -82 48 -114t166 -32q126 0 201 31t115 100.5t64 194.5l113 633h161l-192 -1073h-150l25 142q-56 -66 -116 -101t-126 -47t-155 -12q-111 0 -181.5 22t-105.5 73t-35 136z" />
<glyph unicode="v" horiz-adv-x="975" d="M209 1073l166 -1073h225l551 1073h-174l-469 -952l-125 952h-174z" />
<glyph unicode="w" horiz-adv-x="1562" d="M215 1073h166l73 -965l408 965h234l61 -965l418 965h168l-493 -1073h-234l-60 960l-403 -960h-237z" />
<glyph unicode="x" horiz-adv-x="975" d="M0 0h196l355 434l199 -434h196l-282 561l434 512h-188l-314 -393l-174 393h-188l250 -512z" />
<glyph unicode="y" horiz-adv-x="960" d="M96 -473l25 131q28 -8 59 -8q48 1 80.5 13.5t63 47.5t66.5 102t89 187h-69l-199 1073h164l163 -954l418 954h166l-548 -1217q-61 -134 -118.5 -208t-121.5 -104t-148 -30q-52 0 -90 13z" />
<glyph unicode="z" horiz-adv-x="927" d="M47 2l27 150l784 792h-586l23 131h776l-25 -147l-784 -797h641l-25 -129h-831z" />
<glyph unicode="{" horiz-adv-x="1149" d="M406 500l24 137q141 37 172 213l72 402q22 123 76 191.5t136 93.5q84 25 204 25q22 0 32 -2l-28 -157q-82 -2 -132.5 -21t-80 -63.5t-43.5 -126.5l-68 -368q-16 -100 -50.5 -159.5t-119.5 -99.5q86 -53 86 -167q0 -40 -10 -99l-64 -359q-10 -52 -10 -88q0 -73 43 -103 q43 -29 145 -31l-26 -148q-126 0 -197 15t-109 62t-38 138q0 54 12 127l66 366q10 50 10 84q0 106 -102 138z" />
<glyph unicode="|" horiz-adv-x="1149" d="M422 -381l344 1915h176l-344 -1915h-176z" />
<glyph unicode="}" horiz-adv-x="1149" d="M232 -428l28 154q124 7 180 50.5t78 163.5l66 369q18 100 53 159.5t117 99.5q-86 54 -86 165q0 45 10 101l66 358q8 40 8 84q0 76 -43 106t-146 33l27 147q127 0 197.5 -12t109.5 -56.5t39 -137.5q0 -62 -14 -136l-66 -366q-8 -40 -8 -82q0 -108 100 -141l-22 -135 q-78 -20 -117 -74t-55 -140l-72 -401q-34 -180 -133 -245.5t-285 -65.5q-22 0 -32 2z" />
<glyph unicode="~" horiz-adv-x="1149" d="M142 676q76 114 165.5 186t196.5 72q74 0 151 -42t153 -84t150 -42q115 0 238 172l84 -76q-73 -110 -167.5 -184t-198.5 -74q-57 0 -106.5 20t-116.5 61t-111 61q-42 20 -96 26q-77 0 -136 -44.5t-122 -127.5z" />
<glyph unicode="&#xa3;" horiz-adv-x="733" d="M70 -223l16 86q58 3 84 27t35 82q4 12 4 28h-76l39 211h182l-40 -225q-18 -105 -61 -158.5t-139 -53.5q-6 0 -19 1.5t-25 1.5zM391 -223l17 86q58 3 85 27q27 26 35 82q4 12 4 28h-76l40 211h180l-41 -225q-18 -105 -60.5 -158.5t-138.5 -53.5q-6 0 -19 1.5t-26 1.5z" />
<glyph unicode="&#xa5;" horiz-adv-x="1407" d="M264 534l25 142h421l-96 227h-284l26 141h201l-205 490h201l297 -719l553 719h205l-388 -490h210l-27 -141h-297l-182 -227h438l-24 -142h-460l-96 -534h-172l96 534h-442z" />
<glyph unicode="&#xa8;" horiz-adv-x="1218" d="M142 0l276 1534h987l-29 -154h-819l-92 -520h782l-29 -152h-782l-100 -556h815l-27 -152h-982zM672 1636l30 176h164l-30 -176h-164zM981 1636l31 176h164l-31 -176h-164z" />
<glyph unicode="&#xa9;" horiz-adv-x="1800" d="M234 626q0 70 12 140q39 214 178.5 396.5t341.5 289t416 106.5q189 0 339.5 -85.5t235 -236t84.5 -331.5q0 -68 -12 -139q-38 -214 -177.5 -396t-341 -289t-413.5 -107q-143 0 -264.5 48.5t-212 138t-138.5 209.5t-48 256zM330 639q0 -162 73.5 -293.5t207 -207.5 t301.5 -76q188 0 366 95.5t300 258.5q120 162 154 350q12 63 13 127q0 121 -41.5 226t-119 183.5t-184 122t-234.5 43.5q-190 0 -368 -95t-300 -257t-156 -350q-12 -67 -12 -127zM594 664q0 42 10 100q24 130 97.5 239t185 172.5t243.5 63.5q147 0 247.5 -82.5t100.5 -232.5 h-96q-3 104 -81.5 159t-190.5 55q-100 0 -183 -52t-136 -138t-70 -184q-9 -62 -9 -84q0 -122 69 -200t196 -78q134 0 234.5 74t142.5 204h94q-30 -114 -102.5 -200t-173 -133.5t-214.5 -47.5t-196 46.5t-125 129.5t-43 189z" />
<glyph unicode="&#xab;" horiz-adv-x="1030" d="M223 592l379 586l106 -72l-333 -514l176 -518l-127 -74zM598 592l383 586l105 -72l-334 -514l174 -518l-123 -74z" />
<glyph unicode="&#xad;" horiz-adv-x="1186" d="M178 534l16 97h1010l-16 -97h-1010z" />
<glyph unicode="&#xae;" horiz-adv-x="1800" d="M234 626q0 70 12 140q39 214 178.5 396.5t341.5 289t416 106.5q189 0 339.5 -85.5t235 -236t84.5 -331.5q0 -68 -12 -139q-38 -214 -177.5 -396t-341 -289t-413.5 -107q-143 0 -264.5 48.5t-212 138t-138.5 209.5t-48 256zM330 639q0 -162 73.5 -293.5t207 -207.5 t301.5 -76q188 0 366 95.5t300 258.5q120 162 154 350q12 63 13 127q0 121 -41.5 226t-119 183.5t-184 122t-234.5 43.5q-190 0 -368 -95t-300 -257t-156 -350q-12 -67 -12 -127zM620 307l168 932h445q122 0 177.5 -41t55.5 -135q0 -39 -10 -95q-14 -81 -28.5 -123t-55 -75 t-118.5 -47q120 -11 120 -125q0 -24 -6 -56l-43 -237h-105l40 215q4 38 4 50q0 60 -37 85t-115 25h-320l-67 -373h-105zM807 766l305 2q110 0 162 36t72 138q12 64 12 102q0 54 -30 78.5t-108 24.5h-344z" />
<glyph unicode="&#xb4;" horiz-adv-x="1151" d="M616 1288l346 232l60 -113l-364 -203z" />
<glyph unicode="&#xb8;" horiz-adv-x="1155" d="M188 293q0 107 27 247q28 158 74 265t112.5 170t158.5 91t220 28q136 0 223 -32t130 -103t43 -189q0 -80 -19 -180l-14 -82h-773q-22 -132 -22 -199q0 -78 25 -120.5t80.5 -59.5t152.5 -17q132 0 198 15t95 53t43 115l6 35h162q-20 -112 -62 -182t-105.5 -105t-148 -47 t-210.5 -12q-108 0 -182 15t-121 50t-70 95t-23 149zM396 633h608q12 76 12 129q0 110 -59 156t-199 46q-88 0 -149.5 -18t-102 -57t-66.5 -100t-44 -156zM592 1358l32 176h164l-32 -176h-164zM903 1358l33 176h164l-33 -176h-164z" />
<glyph unicode="&#xbb;" horiz-adv-x="1030" d="M129 74l361 518l-150 514l131 72l174 -586l-419 -592zM504 74l362 518l-149 514l133 72l170 -586l-416 -592z" />
<glyph unicode="&#x410;" horiz-adv-x="1474" d="M53 0l836 1534h247l296 -1534h-182l-58 316h-774l-180 -316h-185zM486 465h678l-170 942z" />
<glyph unicode="&#x411;" horiz-adv-x="1399" d="M150 0l276 1534h1014l-29 -152h-843l-89 -498h512q140 0 225.5 -30.5t125.5 -96t40 -171.5q0 -72 -14 -148q-21 -116 -61.5 -199t-105 -136t-154 -78t-211.5 -25h-686zM346 154h504q120 0 189 28t103 87t54 169q12 67 12 113q0 104 -62 142t-216 38h-480z" />
<glyph unicode="&#x412;" horiz-adv-x="1417" d="M146 0l276 1534h739q170 0 252 -62t82 -200q0 -52 -12 -117q-28 -148 -78.5 -227.5t-177.5 -122.5q104 -30 146 -82.5t42 -140.5q0 -56 -16 -142q-39 -217 -149 -328.5t-322 -111.5h-782zM342 154h473q144 0 220.5 18t121.5 76.5t67 183.5q14 71 15 129q0 96 -54 125 t-196 29h-545zM471 864h487q116 0 185 24t106 83t57 169q10 60 11 99q0 80 -46.5 111.5t-158.5 31.5h-549z" />
<glyph unicode="&#x413;" horiz-adv-x="1116" d="M146 0h172l247 1378h777l28 156h-948z" />
<glyph unicode="&#x414;" horiz-adv-x="1521" d="M2 -352l90 504h94q108 127 168 266q60 140 94 326l144 790h1042l-250 -1382h111l-90 -504h-155l63 352h-1092l-63 -352h-156zM379 152h835l222 1228h-705l-111 -614q-40 -226 -93 -358t-148 -256z" />
<glyph unicode="&#x415;" horiz-adv-x="1218" d="M142 0l276 1534h987l-29 -152h-817l-92 -522h780l-29 -150h-780l-100 -556h813l-27 -154h-982z" />
<glyph unicode="&#x416;" horiz-adv-x="2298" d="M84 0l830 788l-443 746h213l398 -670h149l121 670h172l-121 -670h147l642 670h210l-712 -746l546 -788h-246l-466 712h-148l-129 -712h-172l129 712h-150l-724 -712h-246z" />
<glyph unicode="&#x417;" horiz-adv-x="1399" d="M180 266q0 64 14 142l9 51h163l-8 -49q-12 -60 -12 -107q0 -72 37 -108.5t119 -49t242 -12.5q168 0 266 32t143 95.5t65 171.5q8 58 9 76q-1 200 -277 200h-356l26 150h346q124 0 192 22.5t104 82t57 177.5q6 40 6 72q0 103 -81 145t-273 42q-159 0 -248 -26.5 t-135.5 -91.5t-77.5 -191h-166q31 146 82.5 237t129 139t181 65t261.5 17q180 0 290.5 -28t164 -91t53.5 -167q0 -36 -11 -101q-32 -178 -107 -264q-76 -87 -216 -107q124 -18 176.5 -74t52.5 -165q-1 -65 -15 -143q-42 -232 -195.5 -328t-473.5 -96q-152 0 -253.5 14 t-163.5 46t-91 86t-29 136z" />
<glyph unicode="&#x418;" horiz-adv-x="1607" d="M142 0l276 1534h170l-256 -1418l1128 1418h272l-276 -1534h-170l252 1403l-1126 -1403h-270z" />
<glyph unicode="&#x419;" horiz-adv-x="1601" d="M135 0l277 1534h170l-256 -1415l1128 1415h272l-276 -1534h-170l252 1405l-1126 -1405h-271zM770 1732q0 -92 64 -125.5t214 -33.5q124 0 195.5 19.5t110 69.5t55.5 144h-119q-10 -56 -39 -81.5t-68.5 -31t-113.5 -5.5q-94 0 -136 14t-42 70q0 10 4 34h-117 q-8 -58 -8 -74z" />
<glyph unicode="&#x41a;" horiz-adv-x="1431" d="M150 0l276 1534h170l-121 -670h153l746 670h230l-838 -742l643 -792h-235l-574 712h-152l-128 -712h-170z" />
<glyph unicode="&#x41b;" horiz-adv-x="1495" d="M35 0l27 152h40q71 0 114.5 20t72.5 79.5t51 178.5l198 1102h1082l-276 -1532h-170l248 1378h-742l-168 -930q-26 -149 -71 -248t-118 -149.5t-179 -50.5h-109z" />
<glyph unicode="&#x41c;" horiz-adv-x="1974" d="M160 0l276 1536h285l303 -1317l782 1317h281l-277 -1536h-170l254 1411l-833 -1411h-147l-332 1396l-252 -1396h-170z" />
<glyph unicode="&#x41d;" horiz-adv-x="1534" d="M148 0l276 1532h170l-123 -676h897l123 676h170l-277 -1532h-170l128 706h-898l-126 -706h-170z" />
<glyph unicode="&#x41e;" horiz-adv-x="1456" d="M182 385q0 -162 54.5 -248.5t172 -119.5t320.5 -33q202 0 330.5 32t213 115t140.5 234q57 151 101 401q44 248 44 387q0 122 -30 198.5t-94.5 120t-164.5 61t-255 17.5q-204 0 -332 -32t-213 -115t-140.5 -232t-102.5 -405q-44 -230 -44 -381zM354 406q0 116 44 360 q40 220 76.5 338.5t95 183.5t153.5 89t262 24q156 0 241.5 -21t122.5 -78.5t37 -167.5q0 -120 -44 -368q-38 -216 -76 -335t-96 -184t-153 -89.5t-259 -24.5q-158 0 -242.5 21.5t-123.5 79.5q-38 60 -38 172z" />
<glyph unicode="&#x41f;" horiz-adv-x="1534" d="M148 0l276 1532h1237l-277 -1532h-170l248 1378h-897l-247 -1378h-170z" />
<glyph unicode="&#x420;" horiz-adv-x="1366" d="M146 0l276 1534h731q342 0 342 -301q-1 -67 -15 -139q-25 -140 -70.5 -235t-116.5 -152t-171 -82t-244 -25h-454l-108 -600h-170zM450 750h408q150 0 234 21.5t135 88t75 201.5q14 73 15 137q0 99 -49.5 141.5t-165.5 42.5h-539z" />
<glyph unicode="&#x421;" horiz-adv-x="1358" d="M182 391q0 142 41 371q45 248 103 399.5t143 236.5t205.5 118.5t302.5 33.5q200 0 311.5 -36t155 -110t43.5 -196q-1 -38 -13 -162l-166 2q6 66 7 120q0 91 -28.5 140.5t-106.5 71t-230 21.5q-136 0 -224 -26.5t-149 -95.5t-103 -190.5t-78 -326.5q-38 -204 -38 -332 q0 -91 21 -148.5t64 -90t111 -45.5t169 -13q138 0 226.5 17.5t143.5 58.5t87.5 114t52.5 189h166q-37 -204 -109.5 -317t-212 -162t-381.5 -49q-187 0 -297 33.5t-163.5 122t-53.5 251.5z" />
<glyph unicode="&#x422;" horiz-adv-x="1231" d="M272 1378l29 156h1171l-30 -156h-496l-248 -1378h-172l248 1378h-502z" />
<glyph unicode="&#x423;" horiz-adv-x="1351" d="M318 1534h184l280 -1063l625 1063h176l-770 -1294q-139 -240 -329 -240h-160l26 150h100q78 0 122 30t88 113z" />
<glyph unicode="&#x424;" horiz-adv-x="1786" d="M215 596q0 -134 49.5 -216t146.5 -118t245 -36h190l-41 -226h172l41 226h194q132 0 234 30t178 96t128 174q52 106 79 262q21 122 21 191q0 198 -108 285.5t-329 87.5h-195l34 182h-172l-34 -182h-190q-178 0 -302.5 -55.5t-203.5 -180.5q-80 -126 -116 -328 q-20 -101 -21 -192zM389 631q1 59 17 157q28 150 77.5 240t136.5 133t224 43h178l-150 -832h-178q-163 0 -234 62t-71 197zM1044 372l150 832h178q159 0 231.5 -63t72.5 -199q0 -58 -17 -154q-26 -146 -77.5 -237.5t-139.5 -134.5q-88 -44 -220 -44h-178z" />
<glyph unicode="&#x425;" horiz-adv-x="1405" d="M28 0l693 794l-371 740h205l315 -656l554 656h204l-637 -740l405 -794h-208l-348 704l-602 -704h-210z" />
<glyph unicode="&#x426;" horiz-adv-x="1544" d="M148 0l276 1534h170l-250 -1380h897l250 1380h170l-250 -1380h113l-90 -506h-158l64 352h-1192z" />
<glyph unicode="&#x427;" horiz-adv-x="1464" d="M312 973q0 83 22 203l66 358h170l-70 -389q-12 -68 -12 -119q0 -85 38 -125.5t108 -51.5t204 -11q310 0 426 28l120 668h170l-276 -1534h-170l129 721q-137 -35 -469 -35q-130 0 -215 14t-139 46t-78 87t-24 140z" />
<glyph unicode="&#x428;" horiz-adv-x="2371" d="M146 0l276 1536h170l-250 -1384h782l250 1384h170l-250 -1384h782l250 1384h170l-276 -1536h-2074z" />
<glyph unicode="&#x429;" horiz-adv-x="2406" d="M148 0l276 1534h170l-250 -1380h782l250 1380h170l-250 -1380h780l250 1380h170l-250 -1380h109l-90 -506h-151l63 352h-2029z" />
<glyph unicode="&#x42a;" horiz-adv-x="1515" d="M250 1384l26 150h279h170l-117 -650h510q140 0 227 -30t128 -95.5t41 -170.5q0 -74 -15 -150q-28 -154 -92.5 -251t-172.5 -142t-272 -45h-684l250 1384h-278zM475 154h506q118 0 187.5 28t104 88t54.5 168q13 63 13 111q0 71 -29 110.5t-89.5 55.5t-162.5 16h-479z" />
<glyph unicode="&#x42b;" horiz-adv-x="1865" d="M154 0l276 1534h170l-116 -650h512q140 0 225 -30t125 -96t40 -170q0 -74 -14 -150q-21 -116 -62 -200t-104.5 -136t-153.5 -77t-212 -25h-686zM350 154h506q118 0 187 28t103 88q35 60 54 168q12 63 12 113q0 104 -62 142t-216 38h-480zM1538 0l276 1534h170l-276 -1534 h-170z" />
<glyph unicode="&#x42c;" horiz-adv-x="1409" d="M160 0l276 1534h170l-116 -650h499q140 0 229.5 -31t131.5 -99q42 -66 42 -174q0 -52 -14 -142q-21 -116 -61.5 -199t-104.5 -136t-154 -78t-212 -25h-686zM356 154h504q120 0 189 28t103 87t54 169q12 64 12 113q0 99 -60 139.5t-210 40.5h-487z" />
<glyph unicode="&#x42d;" horiz-adv-x="1394" d="M156 316q0 60 16 155h166q-12 -63 -12 -115q0 -88 40 -137t125 -67.5t232 -18.5q144 0 235.5 30.5t147.5 97t91 174t65 275.5h-699l29 150h698q25 140 25 234q0 120 -39.5 187t-118.5 92.5t-207 25.5q-162 0 -251 -26.5t-139.5 -93t-88.5 -197.5h-166q45 184 125 285 t209.5 141t337.5 40q186 0 295.5 -34t162 -122t52.5 -252q0 -141 -41 -378q-44 -247 -102 -397.5t-142 -233.5t-204 -115t-302 -32q-148 0 -249.5 17.5t-166 56t-94.5 101.5t-30 157z" />
<glyph unicode="&#x42e;" horiz-adv-x="1943" d="M135 0l277 1534h170l-121 -674h325q41 224 98.5 359t141.5 207t198 98t288 26q135 0 224.5 -15t150 -56t91.5 -121.5t31 -208.5q0 -161 -41 -381q-46 -258 -107.5 -413.5t-145 -235t-197.5 -107.5t-287 -28q-181 0 -289.5 31t-163.5 117t-55 251q0 127 35 327h-326 l-127 -710h-170zM899 414q0 -122 36.5 -184t111.5 -82.5t209 -20.5q122 0 202 22t143 86.5t110 192.5t85 340q35 194 35 326q0 131 -38.5 198.5t-111.5 90t-196 22.5q-137 0 -219 -21t-141 -84.5t-101.5 -186.5t-83.5 -345q-41 -232 -41 -354z" />
<glyph unicode="&#x42f;" horiz-adv-x="1431" d="M84 0l477 635q-124 22 -197 109t-73 231q0 47 10 111q22 120 68.5 204.5t119 139t168 79.5t217.5 25h680l-276 -1534h-170l110 612h-474l-453 -612h-207zM461 987q-1 -227 321 -227h463l111 620h-545q-108 0 -176.5 -36t-107.5 -109t-60 -187q-6 -30 -6 -61z" />
<glyph unicode="&#x430;" horiz-adv-x="1165" d="M146 219q0 41 10 105q24 132 86 203.5t154 96.5t228 25q124 0 192 -12.5t98 -38.5t46 -74l29 154q17 90 17 143q0 65 -27 97.5t-85.5 43.5t-166.5 11q-100 0 -154.5 -13.5t-83.5 -48t-45 -102.5l-4 -31h-166q20 107 62.5 171t104 94.5t134.5 39.5t183 9q142 0 230 -19 t136 -75t48 -162q0 -56 -13 -124l-129 -712h-154l32 135q-50 -68 -98 -100.5t-114 -43.5t-178 -11q-190 0 -281 49t-91 190zM316 258q0 -84 50 -118t164 -34q128 0 201.5 11t125.5 56t69 141q8 54 8 75q0 60 -31 88.5t-98.5 37.5t-200.5 9q-132 0 -197 -37t-83 -147 q-8 -42 -8 -82z" />
<glyph unicode="&#x431;" horiz-adv-x="1165" d="M174 295q0 87 26 237l60 332q96 534 528 535q136 0 193.5 5.5t78 22.5t28.5 60h136q-16 -90 -60 -135.5t-124 -62.5t-214 -17q-174 0 -276 -80.5t-142 -307.5q60 86 144 127t212 41q221 0 313.5 -72t92.5 -236q0 -82 -23 -212q-26 -148 -63.5 -248t-100.5 -168t-163 -102 t-248 -34q-114 0 -190 19t-122 59t-66 98t-20 139zM342 324q0 -114 58 -163t200 -49q130 0 202 40t111 128t68 252q21 110 21 191q0 77 -26 119.5t-82 60t-154 17.5q-124 0 -194 -33t-110 -115q-42 -82 -70 -242q-24 -144 -24 -206z" />
<glyph unicode="&#x432;" horiz-adv-x="1149" d="M137 2l193 1073h542q142 0 219 -44q77 -45 77 -159q0 -24 -9 -74q-14 -82 -73 -144q-60 -60 -162 -78q174 -44 174 -199q0 -31 -6 -63q-33 -176 -130 -244t-254 -68h-571zM324 129h378q192 1 226 185q6 30 6 54q0 130 -164 130h-379zM414 622h374q98 0 144 38 q46 36 62 126q6 30 6 54q0 62 -37 85t-117 23h-375z" />
<glyph unicode="&#x433;" horiz-adv-x="893" d="M137 0l193 1073h722l-22 -131h-559l-170 -942h-164z" />
<glyph unicode="&#x434;" horiz-adv-x="1145" d="M-16 -305l80 436h98q77 100 115.5 197.5t68.5 259.5l86 485h760l-168 -942h112l-79 -436h-149l54 305h-774l-55 -305h-149zM334 131h526l146 811h-434l-70 -385q-52 -276 -168 -426z" />
<glyph unicode="&#x435;" horiz-adv-x="1145" d="M176 293q0 87 27 245q30 160 75.5 266t112.5 169t159.5 91t219.5 28q206 0 301 -75t95 -249q0 -76 -19 -180l-17 -82h-772q-20 -131 -20 -197q0 -80 25 -122.5t80 -60.5t153 -18q97 0 157.5 9t96.5 29t54 55t28 92l6 35h162q-20 -113 -62 -182.5t-107 -105.5t-149 -48 t-210 -12q-144 0 -230 28.5t-126 96.5t-40 188zM383 631h608q15 70 15 131q0 108 -60 154q-58 46 -198 46q-116 0 -188 -32t-113 -104t-64 -195z" />
<glyph unicode="&#x436;" horiz-adv-x="1530" d="M22 0l584 578l-307 495h178l261 -432h63l77 432h162l-78 -432h62l416 432h178l-484 -495l376 -578h-193l-315 516h-62l-92 -516h-162l92 516h-63l-500 -516h-193z" />
<glyph unicode="&#x437;" horiz-adv-x="1112" d="M154 207q0 53 12 119h156q-10 -60 -10 -94q0 -50 23 -77t79 -37t160 -10q128 0 191 18t91 59t43 127q6 26 6 52q1 126 -159 126h-242l24 130h242q166 0 198 176q4 16 5 48q0 60 -49.5 90t-179.5 30q-108 0 -166 -10t-92 -46t-48 -110l-2 -18h-156l2 18q22 118 83 183 t156 89t235 24q204 0 293 -53t89 -163q0 -32 -6 -69q-16 -88 -74 -160.5t-157 -89.5q168 -28 168 -182q0 -29 -6 -61q-23 -124 -76.5 -197t-154 -106t-267.5 -33q-153 0 -243 22t-129 72t-39 133z" />
<glyph unicode="&#x438;" horiz-adv-x="1183" d="M133 0l193 1073h162l-158 -879l708 879h199l-193 -1073h-162l158 872l-704 -872h-41h-162z" />
<glyph unicode="&#x439;" horiz-adv-x="1181" d="M133 0l193 1073h162l-158 -877l706 877h201l-193 -1073h-162l158 874l-704 -874h-41h-162zM586 1294q0 24 6 68h100q-4 -25 -4 -35q0 -42 29 -54.5t98 -12.5q80 0 114 19t46 83h100q-14 -80 -45.5 -123t-86.5 -60.5t-147 -17.5q-114 0 -162 28.5t-48 104.5z" />
<glyph unicode="&#x43a;" horiz-adv-x="1073" d="M170 0l192 1073h164l-78 -432h64l465 432h197l-546 -493l437 -580h-213l-362 516h-64l-92 -516h-164z" />
<glyph unicode="&#x43b;" horiz-adv-x="1091" d="M2 0h80q258 0 314 309l114 635h458l-170 -944h164l193 1073h-787l-134 -759q-14 -80 -34 -117t-53.5 -50t-95.5 -14h-25z" />
<glyph unicode="&#x43c;" horiz-adv-x="1487" d="M127 0l193 1073h258l196 -887l516 887h260l-192 -1073h-162l168 932l-551 -932h-143l-214 932l-167 -932h-162z" />
<glyph unicode="&#x43d;" horiz-adv-x="1165" d="M135 0l193 1073h164l-78 -438h563l77 438h164l-192 -1073h-164l90 504h-563l-90 -504h-164z" />
<glyph unicode="&#x43e;" horiz-adv-x="1153" d="M174 291q0 83 26 243q40 224 105.5 344t174 167t292.5 47q145 0 232 -28t128.5 -96.5t41.5 -189.5q0 -87 -27 -242q-40 -224 -106 -343t-175.5 -166t-293.5 -47q-144 0 -230 27.5t-127 95t-41 188.5zM340 314q0 -82 26 -126t80.5 -60t149.5 -16q127 0 197 31.5t113 121 t75 271.5q25 134 25 220q0 82 -26 125.5t-81 60t-151 16.5q-127 0 -196.5 -32t-111.5 -122t-74 -270q-26 -148 -26 -220z" />
<glyph unicode="&#x43f;" horiz-adv-x="1161" d="M133 0l193 1073h890l-192 -1073h-164l170 942h-563l-170 -942h-164z" />
<glyph unicode="&#x440;" horiz-adv-x="1173" d="M56 -463l276 1536h160l-31 -137q133 158 371 158q201 0 280.5 -75t79.5 -227q0 -84 -28 -252q-35 -189 -84 -306t-151.5 -185.5t-281.5 -68.5q-121 0 -202 29.5t-119 113.5l-107 -586h-163zM377 318q0 -108 52.5 -157t186.5 -49q140 0 213.5 45t104.5 129q32 82 64 256 q28 156 28 228q0 99 -55 144.5t-195 45.5q-108 0 -173 -23t-101.5 -72t-55.5 -118t-44 -205q-24 -152 -25 -224z" />
<glyph unicode="&#x441;" horiz-adv-x="1126" d="M176 291q0 103 27 243q38 214 100.5 334t170 172t286.5 52q199 0 297 -57t98 -203q0 -34 -6 -74l-6 -35h-156q11 56 11 90q0 80 -56.5 112.5t-206.5 32.5q-124 0 -190.5 -32t-104.5 -119q-40 -87 -72 -269q-24 -140 -24 -220q0 -81 24.5 -125.5t77 -62.5t142.5 -18 q127 0 192.5 23t99.5 80t62 174h158q-30 -126 -71.5 -205.5t-102 -123.5t-147.5 -62t-216 -18q-142 0 -225.5 29t-122.5 97t-39 185z" />
<glyph unicode="&#x442;" horiz-adv-x="938" d="M184 942h371l-170 -942h164l170 942h371l22 131h-905z" />
<glyph unicode="&#x443;" horiz-adv-x="960" d="M96 -473l25 131q28 -8 59 -8q48 1 80.5 13.5t63 47.5t66.5 102t89 187h-69l-199 1073h164l163 -954l418 954h166l-548 -1217q-61 -134 -118.5 -208t-121.5 -104t-148 -30q-52 0 -90 13z" />
<glyph unicode="&#x444;" horiz-adv-x="1689" d="M166 246q0 96 37 296q28 152 54.5 246t73.5 162t127 105t204 37q204 0 264 -166l110 610h164l-110 -610q128 166 334 166q158 0 222 -66t64 -200q0 -86 -32 -284q-25 -140 -53.5 -238t-75.5 -171.5t-127 -114t-200 -40.5q-100 0 -174 52t-94 142l-114 -635h-164l114 631 q-34 -58 -89 -101.5t-121 -66t-134 -22.5q-105 0 -166.5 32t-87.5 91t-26 145zM346 326q0 -112 44 -164t146 -52q98 0 160 48t99 146t67 270q20 114 20 180q0 106 -45.5 155t-148.5 49q-100 0 -160 -41t-94.5 -122t-58.5 -217q-29 -160 -29 -252zM998 324q0 -110 43 -162 t145 -52q100 0 162 48.5t100 147t70 272.5q20 110 20 178q0 104 -46 153t-154 49q-138 0 -206 -89t-106 -295q-28 -154 -28 -250z" />
<glyph unicode="&#x445;" horiz-adv-x="975" d="M0 0h196l355 434l199 -434h196l-282 561l434 512h-188l-314 -393l-174 393h-188l250 -512z" />
<glyph unicode="&#x446;" horiz-adv-x="1194" d="M137 0l193 1075h164l-168 -944h561l167 944h164l-168 -944h114l-80 -436h-150l55 305h-852z" />
<glyph unicode="&#x447;" horiz-adv-x="1122" d="M268 682q0 42 8 84l56 309h164l-48 -272q-10 -58 -10 -88q0 -48 20 -73t64 -34.5t121 -9.5q183 0 285 49l76 428h164l-193 -1075h-164l101 555h-9q-48 -54 -111 -72q-62 -18 -220 -18q-152 0 -228 50.5t-76 166.5z" />
<glyph unicode="&#x448;" horiz-adv-x="1784" d="M140 0l192 1073h164l-168 -942h506l168 942h164l-168 -942h505l168 942h164l-193 -1073h-1502z" />
<glyph unicode="&#x449;" horiz-adv-x="1784" d="M140 0l192 1073h164l-168 -942h506l168 942h164l-168 -942h505l168 942h164l-168 -942h115l-80 -436h-152l56 305h-1466z" />
<glyph unicode="&#x44a;" horiz-adv-x="1198" d="M180 942h213l-170 -942h555q141 0 242.5 78t130.5 244q10 58 10 92q0 230 -266 229h-393l76 430h-375zM410 131l67 379h334q99 0 141 -26.5t42 -94.5q0 -13 -9 -69q-20 -108 -71.5 -148.5t-165.5 -40.5h-338z" />
<glyph unicode="&#x44b;" horiz-adv-x="1476" d="M133 -2h557q140 0 241 78t130 244q10 58 10 92q0 230 -266 229h-395l78 432h-162zM320 131l67 379h334q99 0 140.5 -26t41.5 -95q0 -15 -8 -69q-20 -108 -71.5 -148.5t-165.5 -40.5h-338zM1206 -2h164l192 1075h-163z" />
<glyph unicode="&#x44c;" horiz-adv-x="1112" d="M140 0h556q140 0 241 77t130 243q10 58 10 92q0 230 -266 229h-393l78 432h-164zM328 131l68 379h331q99 0 141 -26.5t42 -94.5q0 -13 -9 -69q-20 -108 -71.5 -148.5t-163.5 -40.5h-338z" />
<glyph unicode="&#x44d;" horiz-adv-x="1147" d="M170 252q0 22 4 76h160q-2 -20 -2 -56q0 -47 13 -78.5t43 -50.5t81 -28t131 -9q128 0 196 34t104 116q34 83 64 250h-460l24 131h461q17 89 17 145q0 100 -56 140q-54 40 -194 40q-112 0 -173.5 -15t-96 -54t-60.5 -115h-154q38 126 103.5 194t161 93t241.5 27 q138 0 222 -28.5t124 -96t40 -187.5q0 -98 -26 -240q-30 -169 -70 -274.5t-102 -169t-154 -91t-234 -27.5q-155 0 -245 32t-126.5 91t-36.5 151z" />
<glyph unicode="&#x44e;" horiz-adv-x="1609" d="M140 0l192 1073h164l-78 -436h254q43 182 104.5 278.5t165.5 136.5t282 40q144 0 231.5 -26t130 -93t42.5 -191q0 -106 -26 -246q-32 -177 -77 -283.5t-111 -166.5t-159.5 -83t-230.5 -23q-144 0 -230.5 26t-128 92t-41.5 184q0 100 23 224h-254l-90 -506h-163zM792 305 q0 -79 25 -120t79 -57t152 -16q101 0 163.5 17t102.5 60t69 126t53 221q26 150 26 222q0 80 -26 123t-82 60t-154 17q-100 0 -160 -16t-101 -61t-68 -126t-52 -221q-27 -142 -27 -229z" />
<glyph unicode="&#x44f;" horiz-adv-x="1097" d="M78 0h184l291 432h323l-78 -432h164l193 1073h-557q-91 0 -168 -31.5t-131.5 -102.5t-75.5 -185q-6 -34 -6 -66q0 -98 50.5 -161t125.5 -75zM381 682q0 18 8 72q18 103 73.5 145.5t165.5 42.5h340l-69 -379h-336q-100 0 -141 25.5t-41 93.5z" />
<glyph unicode="&#x2000;" horiz-adv-x="906" />
<glyph unicode="&#x2001;" horiz-adv-x="1812" />
<glyph unicode="&#x2002;" horiz-adv-x="906" />
<glyph unicode="&#x2003;" horiz-adv-x="1812" />
<glyph unicode="&#x2004;" horiz-adv-x="604" />
<glyph unicode="&#x2005;" horiz-adv-x="453" />
<glyph unicode="&#x2006;" horiz-adv-x="302" />
<glyph unicode="&#x2007;" horiz-adv-x="302" />
<glyph unicode="&#x2008;" horiz-adv-x="226" />
<glyph unicode="&#x2009;" horiz-adv-x="362" />
<glyph unicode="&#x200a;" horiz-adv-x="100" />
<glyph unicode="&#x2010;" horiz-adv-x="1186" d="M178 534l16 97h1010l-16 -97h-1010z" />
<glyph unicode="&#x2011;" horiz-adv-x="1186" d="M178 534l16 97h1010l-16 -97h-1010z" />
<glyph unicode="&#x2012;" horiz-adv-x="1186" d="M178 534l16 97h1010l-16 -97h-1010z" />
<glyph unicode="&#x2013;" horiz-adv-x="1407" d="M178 486l27 149h1227l-27 -149h-1227z" />
<glyph unicode="&#x2014;" horiz-adv-x="1603" d="M88 486l26 149h1604l-26 -149h-1604z" />
<glyph unicode="&#x2018;" horiz-adv-x="413" d="M297 1100l39 225q20 107 61 159t135 52q9 0 23.5 -1t22.5 -1l-17 -88q-57 -3 -83 -27.5t-36 -80.5q-1 -4 -2 -14q0 -12 -2 -16h76l-37 -208h-180z" />
<glyph unicode="&#x2019;" horiz-adv-x="401" d="M297 1100l15 88q58 3 84 27q26 23 36 81q2 10 2 29h-76l40 209h180l-42 -226q-18 -104 -60 -157t-136 -53q-8 0 -20 1t-23 1z" />
<glyph unicode="&#x201a;" horiz-adv-x="409" d="M70 -223l16 86q56 3 83 27q27 26 36 82q4 12 4 28h-76l39 211h180l-40 -225q-18 -104 -60 -158q-44 -54 -138 -54q-8 0 -21 1.5t-23 1.5z" />
<glyph unicode="&#x201c;" horiz-adv-x="717" d="M295 1100l39 225q20 107 62 159q40 52 136 52q8 0 22 -1q16 -1 24 -1l-17 -88q-58 -3 -84.5 -27.5t-36.5 -80.5q-1 -4 -2 -14q0 -12 -2 -16h76l-37 -208h-180zM618 1100l40 225q20 106 62 158.5t136 52.5q8 0 23 -1t22 -1l-17 -88q-58 -3 -83.5 -27.5t-34.5 -80.5 q-1 -4 -2 -14q-1 -12 -2 -16h76l-37 -208h-183z" />
<glyph unicode="&#x201d;" horiz-adv-x="717" d="M297 1100l15 88q59 3 84.5 26.5t35.5 81.5q2 10 2 29h-76l40 209h182l-42 -226q-18 -104 -61 -157t-137 -53q-8 0 -20 1t-23 1zM620 1100l15 88q59 3 86 27.5t37 80.5q2 10 2 29h-76l39 209h180l-41 -226q-18 -104 -60 -157t-138 -53q-7 0 -19 1q-13 1 -25 1z" />
<glyph unicode="&#x201e;" horiz-adv-x="733" d="M70 -223l16 86q58 3 84 27t35 82q4 12 4 28h-76l39 211h182l-40 -225q-18 -105 -61 -158.5t-139 -53.5q-6 0 -19 1.5t-25 1.5zM391 -223l17 86q58 3 85 27q27 26 35 82q4 12 4 28h-76l40 211h180l-41 -225q-18 -105 -60.5 -158.5t-138.5 -53.5q-6 0 -19 1.5t-26 1.5z" />
<glyph unicode="&#x2022;" horiz-adv-x="1380" d="M572 616q0 12 4 42q18 94 92 157q76 63 168 63q83 0 136.5 -51t53.5 -131q0 -10 -4 -38q-16 -92 -94 -157t-172 -65q-80 0 -132 51t-52 129z" />
<glyph unicode="&#x2026;" horiz-adv-x="1374" d="M137 0l37 207h184l-36 -207h-185zM596 0l37 207h182l-37 -207h-182zM1054 0l38 207h182l-37 -207h-183z" />
<glyph unicode="&#x202f;" horiz-adv-x="362" />
<glyph unicode="&#x2039;" horiz-adv-x="655" d="M223 592l381 586l104 -72l-333 -514l174 -518l-125 -74z" />
<glyph unicode="&#x203a;" horiz-adv-x="631" d="M129 74l361 518l-150 514l133 72l170 -586l-415 -592z" />
<glyph unicode="&#x205f;" horiz-adv-x="453" />
<glyph unicode="&#x2122;" horiz-adv-x="1691" d="M286 1448l17 84h617l-17 -84h-262l-131 -727h-90l131 727h-265zM854 721l148 811h149l162 -694l413 694h148l-148 -811h-90l136 745l-443 -745h-77l-175 739l-133 -739h-90z" />
<glyph unicode="&#x25fc;" horiz-adv-x="1072" d="M0 0v1072h1072v-1072h-1072z" />
</font>
</defs>
</svg>
