<?xml version="1.0" standalone="no"?>
<!DOCTYPE svg PUBLIC "-//W3C//DTD SVG 1.1//EN" "http://www.w3.org/Graphics/SVG/1.1/DTD/svg11.dtd" >
<svg xmlns="http://www.w3.org/2000/svg" xmlns:xlink="http://www.w3.org/1999/xlink" version="1.1">
<metadata></metadata>
<defs>
<font id="europenormal" horiz-adv-x="1411" >
<font-face units-per-em="2048" ascent="1638" descent="-410" />
<missing-glyph horiz-adv-x="487" />
<glyph horiz-adv-x="0" />
<glyph unicode="&#xd;" horiz-adv-x="0" />
<glyph unicode=" "  horiz-adv-x="487" />
<glyph unicode="&#x09;" horiz-adv-x="487" />
<glyph unicode="&#xa0;" horiz-adv-x="487" />
<glyph unicode="!" horiz-adv-x="549" d="M178 1534h188l-22 -1112h-148zM186 0v209h170v-209h-170z" />
<glyph unicode="&#x22;" horiz-adv-x="758" d="M112 1534h191l-29 -612h-132zM452 1534h191l-27 -612h-137z" />
<glyph unicode="#" horiz-adv-x="1390" d="M142 532l14 92h284l37 256h-287l15 97h285l61 419h96l-59 -419h270l58 419h96l-60 -419h295l-14 -97h-293l-37 -256h293l-12 -92h-293l-65 -456h-95l63 456h-270l-63 -456h-99l66 456h-286zM536 624h271l37 256h-272z" />
<glyph unicode="$" horiz-adv-x="1407" d="M60 404v55h172q0 -120 15 -185.5t52.5 -98t99 -43t187.5 -13.5h57v583q-184 0 -302 23.5t-192.5 110t-74.5 262.5q0 182 60 276.5t170.5 127t291.5 32.5h47v142h129v-142q202 0 311.5 -25.5t169.5 -118t60 -286.5h-170q0 114 -19 174t-73.5 87t-163.5 27h-115v-540 q156 0 252 -10t170 -50t114 -126.5t40 -233.5q0 -182 -56.5 -280t-168 -133t-302.5 -35h-49v-156h-129v152q-166 0 -259 9t-166 47t-114.5 126t-43.5 242zM246 1140q0 -96 19.5 -153.5t59 -87t97.5 -38.5t148 -9h73v540h-75q-104 -8 -151 -13.5t-87 -28t-62 -72.5 q-22 -52 -22 -138zM772 119h60q117 0 190.5 23.5t113.5 87.5t40 182q0 134 -37.5 195t-110.5 77q-72 16 -219 20h-37v-585z" />
<glyph unicode="%" horiz-adv-x="1808" d="M62 1052v200q0 116 26 176t98 85t212 25q138 0 207 -25t95 -85q25 -58 25 -176v-200q0 -87 -13.5 -141.5t-47.5 -86.5t-97.5 -46t-168.5 -14q-141 0 -212.5 25.5t-97.5 86.5q-26 60 -26 176zM162 1012q0 -78 27 -113t72 -43t137 -8q84 0 130 10t72 48t26 118v252 q0 81 -26 119.5t-72 48.5t-130 10q-87 0 -134.5 -10.5t-74.5 -49t-27 -118.5v-264zM350 0l1034 1534h109l-1039 -1534h-104zM1118 284v200q0 118 26.5 178t97.5 85t210 25t210.5 -27t97.5 -87t26 -174v-200q-2 -87 -16 -140.5t-48.5 -85.5t-98.5 -46t-171 -14 q-139 0 -210 26t-98 86q-26 60 -26 174zM1218 246q0 -78 27 -113t72 -43t135 -8q88 0 134 9.5t72 47t26 117.5v254q0 80 -26 118.5t-73 49t-133 10.5q-84 0 -132 -11t-75 -49t-27 -118v-264z" />
<glyph unicode="&#x26;" horiz-adv-x="1609" d="M131 488q0 152 40.5 234t106.5 113q64 31 164 45q-45 39 -69.5 66.5t-39.5 57.5t-21.5 69t-6.5 95q0 150 55.5 226t152 100t249.5 24q162 0 255 -26.5t141 -107t48 -239.5q0 -56 -2 -84h-168q-2 20 -2 55q-1 97 -13.5 146.5t-43.5 72.5t-81 28t-158 5q-132 0 -196.5 -30 t-64.5 -146q0 -84 28 -134t101 -108l576 -483q4 79 4 111v98h170v-134q0 -100 -18 -204l268 -219l-94 -119l-226 186q-44 -92 -122 -136t-164 -54q-88 -10 -218 -10q-190 0 -296.5 10t-188 57t-124 150t-42.5 285zM303 490q0 -116 11.5 -183t45.5 -105t100 -53.5t179 -15.5 h149q94 0 161 8t125 42.5t77 107.5l-600 495q-116 -28 -160.5 -49t-66 -75t-21.5 -172z" />
<glyph unicode="'" horiz-adv-x="420" d="M112 1534h195l-29 -612h-138z" />
<glyph unicode="(" horiz-adv-x="637" d="M127 258v719q0 156 9.5 249.5t47.5 167t120.5 114t223.5 40.5v-145q-92 0 -141 -25.5t-66 -71.5t-19 -121t-3 -143v-850q3 -105 12 -159.5t51 -93.5t134 -39l32 2v-146q-12 0 -26 -1t-20 -1q-154 0 -230 65t-98 168t-27 271z" />
<glyph unicode=")" horiz-adv-x="637" d="M127 -98v-146q12 0 26 -1t21 -1q154 0 230 65t98 165q20 101 26 274v719q0 156 -9 249.5t-47 167t-120.5 114t-224.5 40.5v-145q92 0 141 -25.5t66.5 -71t19.5 -121t2 -143.5v-850q-3 -105 -11.5 -159.5t-50.5 -93.5t-134 -39z" />
<glyph unicode="*" horiz-adv-x="1407" d="M297 1210l37 109l315 -115v332h113v-332l313 117l37 -117l-314 -112l191 -271l-92 -65l-191 278l-204 -278l-90 65l196 271z" />
<glyph unicode="+" horiz-adv-x="1151" d="M53 738v92h471v444h98v-444h476v-92h-476v-445h-98v445h-471z" />
<glyph unicode="," horiz-adv-x="465" d="M123 -137q56 3 78 27t22 82q0 20 -2 28h-75v211h180v-225q0 -106 -32 -159t-126 -53q-8 0 -21 1.5t-24 1.5v86z" />
<glyph unicode="-" horiz-adv-x="1186" d="M82 534v97h1010v-97h-1010z" />
<glyph unicode="." horiz-adv-x="456" d="M137 0v207h183v-207h-183z" />
<glyph unicode="/" horiz-adv-x="1487" d="M16 -226l1182 1760h129l-1185 -1760h-126z" />
<glyph unicode="0" horiz-adv-x="1407" d="M53 772q0 314 65 482t203.5 232t380.5 64t381 -64t205 -232t66 -482q0 -238 -37 -391t-114 -240t-199 -123t-302 -36t-300.5 36t-198 123t-114 241t-36.5 390zM226 772q0 -267 38 -401.5t138 -187t300 -52.5q151 0 242.5 29t143.5 99t73 191.5t21 321.5q0 202 -20.5 323 t-71.5 187.5t-141.5 92.5t-246.5 26q-204 0 -303 -49.5t-136 -180.5t-37 -399z" />
<glyph unicode="1" horiz-adv-x="1407" d="M240 1071l424 463h239v-1534h-161v1403l-394 -432z" />
<glyph unicode="2" d="M125 0v286q0 131 37.5 212.5t107 125.5t164 64t232.5 33q188 18 255 35t104.5 83.5t37.5 223.5q0 122 -36.5 196t-118.5 108t-220 34q-160 0 -247 -36t-118.5 -106t-31.5 -184v-63h-166q0 158 27.5 260t91 163t172 88t276.5 27q190 0 307.5 -47.5t174.5 -155t57 -286.5 q0 -147 -26.5 -234.5t-85.5 -137t-151 -74.5t-253 -43q-156 -17 -211.5 -25.5t-107 -35t-78.5 -83t-27 -158.5v-120h940v-150h-1106z" />
<glyph unicode="3" d="M119 408q0 60 2 92h168v-90q1 -110 32.5 -168t115 -82.5t245.5 -24.5q136 0 215 13.5t120 46.5t55 89q14 54 14 156q0 152 -71 211t-241 59h-213v150h197q104 0 160 10t86.5 38t41.5 81t11 151q0 130 -82 194.5t-293 64.5q-148 0 -228 -33.5t-111 -105.5t-31 -197h-164 q0 180 51.5 285.5t167 152.5t313.5 47q194 0 316 -46t177.5 -137t55.5 -225q0 -124 -26.5 -196t-80 -108t-145.5 -50q110 -14 171.5 -56t85.5 -112t24 -176q0 -140 -28 -227t-93 -137t-174 -71t-279 -21q-136 0 -236 15t-174 59t-114.5 129t-40.5 219z" />
<glyph unicode="4" d="M62 352v205l770 977h258v-1034h231v-148h-231v-352h-164v352h-864zM205 500h721v922z" />
<glyph unicode="5" horiz-adv-x="1407" d="M142 440h170q0 -104 13 -160t52 -88t116 -44.5t217 -12.5t222 26.5t121 98.5t39 207q0 175 -27 265t-101 130q-74 39 -222 39q-161 0 -242.5 -13t-113.5 -42t-48 -88h-164v768h1032v-150h-868v-452q62 82 160 104q100 22 242 22q186 0 300 -47t169 -154t55 -286 q0 -229 -46 -351t-164 -174t-344 -52q-212 0 -327 26.5t-178 125t-63 302.5z" />
<glyph unicode="6" d="M116 570v220q0 246 24 391t86 225t176 112t310 32q140 0 232 -10.5t164 -47t111 -110.5t39 -196q0 -10 -1 -25t-1 -23h-164q0 6 1 18q1 14 1 18q0 97 -35 145.5t-115 64.5q-80 17 -232 17q-173 0 -262 -34t-126 -128q-38 -95 -38 -281v-168q24 54 62 85t123 47t241 16 q190 0 307 -43t174 -147t57 -285q0 -141 -33 -233t-101 -146t-172.5 -77t-259.5 -23q-171 0 -275 20.5t-169 80t-94.5 174.5t-29.5 311zM286 463q0 -102 21.5 -166.5t67.5 -99.5t121 -49.5t188 -14.5q150 0 234 29t122 99.5t40 199.5q0 99 -20.5 163t-65 100t-120 51 t-190.5 15q-156 0 -240 -28t-121 -98.5t-37 -200.5z" />
<glyph unicode="7" d="M110 1382v152h1119v-217l-743 -1317h-206l808 1382h-978z" />
<glyph unicode="8" d="M119 448q0 151 55 235.5t209 114.5q-104 21 -156 66t-68.5 109.5t-16.5 162.5q0 118 28.5 196.5t92.5 126t169.5 68.5t263.5 21t262 -21t167 -68t91 -125q27 -78 27 -196q0 -98 -17.5 -162t-70.5 -110t-157 -68q100 -18 159 -65t84 -120t25 -173q0 -133 -24 -217.5 t-86 -136.5t-173 -76t-293 -24q-178 0 -288.5 24t-172 77.5t-85.5 140.5q-25 86 -25 220zM291 422q0 -116 31.5 -176t116.5 -85.5t253 -25.5q170 0 253.5 24.5t115 85.5t31.5 183q0 87 -17 140.5t-60 86.5t-121 47.5t-204 14.5q-125 0 -202.5 -15t-120.5 -48t-59.5 -89 t-16.5 -143zM316 1136q0 -87 13 -137.5t50 -80t111 -42t200 -12.5q170 0 251 26t105.5 81t24.5 165q0 98 -29 154t-110.5 82.5t-241.5 26.5q-156 0 -236.5 -26t-109 -81.5t-28.5 -155.5z" />
<glyph unicode="9" d="M119 346q0 10 1 25t1 22h163q0 -6 -1 -18.5t-1 -20.5q0 -72 20 -115t64 -65.5t114 -30.5q72 -8 184 -8q131 0 211.5 17.5t127 62.5t67.5 129q20 86 20 228v170q-24 -54 -62 -85t-123 -47t-241 -16q-190 0 -307 43t-173.5 146t-56.5 284q0 139 33 232t100.5 147.5 t173.5 78t258 23.5q213 0 332.5 -38t177.5 -150t58 -332v-286q0 -249 -23 -391.5t-86 -222.5t-176 -111t-311 -31q-138 0 -231 10t-164 45.5t-110.5 109t-39.5 195.5zM297 1071q0 -98 20.5 -161.5t65.5 -100.5t120 -52t189 -15q156 0 240 28t121 98.5t37 200.5 q0 135 -38 206t-122 97.5t-238 26.5q-148 0 -233 -29t-123 -100.5t-39 -198.5z" />
<glyph unicode=":" horiz-adv-x="456" d="M137 2v209h183v-209h-183zM137 864v209h183v-209h-183z" />
<glyph unicode=";" horiz-adv-x="459" d="M116 -137q56 3 78.5 27t22.5 82q0 20 -2 28h-75v209h180v-223q0 -106 -32 -159t-126 -53q-8 0 -21 1.5t-25 1.5v86zM140 864v209h180v-209h-180z" />
<glyph unicode="&#x3c;" horiz-adv-x="1149" d="M74 692v156l997 471v-181l-805 -368l805 -370v-179z" />
<glyph unicode="=" horiz-adv-x="1151" d="M53 668h1049v-94h-1046zM53 994h1049v-95h-1046z" />
<glyph unicode="&#x3e;" horiz-adv-x="1151" d="M78 221v179l804 370l-804 370v179l997 -473v-154z" />
<glyph unicode="?" horiz-adv-x="1196" d="M125 1057q0 152 18.5 242.5t67 144.5t137 77t238.5 23q178 0 283 -30t160 -119t55 -263q0 -130 -30 -213t-81 -131.5t-103 -72.5q-51 -23 -153 -61q-103 -38 -103 -172v-40h-168q0 120 17 182.5t66 103t155 81.5q104 37 152 68t67 83t19 154q0 112 -32 173.5t-103 86.5 t-195 25q-135 0 -200 -22.5t-85.5 -71.5t-20.5 -146v-102h-161zM436 0v209h180v-209h-180z" />
<glyph unicode="@" horiz-adv-x="1448" d="M96 715q0 220 27 344t91 188.5t176 86.5q110 22 308 22q220 0 346 -23.5t194.5 -83t93.5 -165.5q26 -108 26 -292q0 -206 -24.5 -312t-67.5 -139.5t-113 -33.5q-69 0 -122 31t-65 94q-56 -131 -276 -131q-127 0 -191.5 50t-83.5 133.5t-19 215.5q0 134 22.5 216.5t90 127 t197.5 44.5q179 0 240 -105v101h111v-525q2 -78 16.5 -120.5t73.5 -42.5q40 0 63.5 24t37.5 108t14 258q0 186 -15 274t-67.5 131t-156 55t-325.5 12q-190 0 -286 -18t-143 -71t-61 -153q-14 -102 -14 -306q0 -208 17 -319t68.5 -170t149 -79.5t283.5 -20.5q292 1 365 23 q37 14 57 52l80 -56q-40 -71 -116 -93q-92 -25 -352 -25q-208 0 -319.5 17.5t-186 82t-109.5 204.5t-35 389zM516 700q0 -98 8.5 -157.5t28.5 -91t54.5 -42.5t92.5 -11q106 0 158.5 26t69.5 80q16 56 16 158v100q0 84 -19 134.5t-66 75t-130 24.5q-72 0 -112 -11.5t-62 -42 t-30.5 -86.5t-8.5 -156z" />
<glyph unicode="A" horiz-adv-x="1474" d="M53 0l559 1534h248l572 -1534h-182l-116 316h-774l-122 -316h-185zM402 465h678l-340 942z" />
<glyph unicode="B" horiz-adv-x="1417" d="M146 0v1534h738q202 0 296 -87.5t94 -291.5q0 -98 -13 -161.5t-55 -111.5t-124 -77q99 -28 150 -73.5t69 -113.5t18 -178q0 -218 -89.5 -329t-301.5 -111h-782zM316 154h472q110 0 174 9t105.5 37t60.5 83t19 149q0 125 -24.5 184.5t-83.5 79t-179 19.5h-544v-561z M316 864h487q116 0 180 24t91.5 83t27.5 169q0 140 -50 191t-188 51h-548v-518z" />
<glyph unicode="C" horiz-adv-x="1358" d="M86 762q0 245 31 398t100.5 238t184 118.5t296.5 33.5t295 -29t174 -90t86 -151q25 -92 33 -234l-166 2q-16 152 -45 221t-113 100.5t-264 31.5q-136 0 -219 -26.5t-131.5 -95t-69 -192t-20.5 -325.5q0 -204 20 -324.5t68.5 -187.5t131.5 -92q82 -25 220 -25 q139 0 224.5 17.5t133 58.5t66 113t18.5 190h166q0 -204 -52 -317t-183 -162t-373 -49q-184 0 -297.5 32t-183 114t-100.5 234t-31 398z" />
<glyph unicode="D" horiz-adv-x="1501" d="M146 0v1534h708q180 0 293 -57t170.5 -159t77.5 -236t20 -316q0 -178 -18.5 -310.5t-72.5 -236t-157 -161.5t-268 -58h-753zM316 154h501q156 0 247.5 53t135 186.5t43.5 372.5q0 182 -24.5 302t-75.5 188t-131 97t-197 29h-499v-1228z" />
<glyph unicode="E" horiz-adv-x="1218" d="M142 0v1534h986v-152h-816v-522h780v-150h-780v-556h812v-154h-982z" />
<glyph unicode="F" horiz-adv-x="1116" d="M144 0v1534h936v-152h-766v-536h747v-150h-747v-696h-170z" />
<glyph unicode="G" horiz-adv-x="1423" d="M102 762q0 230 29.5 379t99 239t190.5 129t312 39q262 0 391 -47t174 -141t60 -276h-166q-10 134 -44.5 198t-127.5 90.5t-287 26.5q-144 0 -229.5 -26.5t-135.5 -94.5t-72 -190.5t-22 -325.5t21.5 -324.5t72 -187.5t137 -91.5t228.5 -25.5q188 0 286 42.5t135.5 142 t37.5 286.5v56h-492v147h664v-179q0 -200 -31 -323.5t-101 -193t-189.5 -98.5t-307.5 -29q-194 0 -316 38t-190.5 126t-97.5 235t-29 379z" />
<glyph unicode="H" horiz-adv-x="1534" d="M148 0v1532h170v-676h896v676h170v-1532h-170v706h-896v-706h-170z" />
<glyph unicode="I" horiz-adv-x="456" d="M144 2v1530h174v-1530h-174z" />
<glyph unicode="J" horiz-adv-x="1153" d="M60 422v137h168v-113q0 -124 25 -189t90 -92.5t191 -27.5q106 0 173 31.5t98 99.5t31 180v1086h170v-1112q0 -140 -41 -236t-145 -149q-106 -53 -286 -53q-144 0 -238 26t-145 79.5t-71 133t-20 199.5z" />
<glyph unicode="K" horiz-adv-x="1431" d="M150 0v1534h170v-670h153l625 670h229l-705 -742l787 -792h-235l-701 710h-153v-710h-170z" />
<glyph unicode="L" horiz-adv-x="1147" d="M158 0v1534h172v-1378h774v-156h-946z" />
<glyph unicode="M" horiz-adv-x="1974" d="M160 0v1536h284l541 -1317l545 1317h280v-1536h-170v1411l-579 -1411h-147l-584 1396v-1396h-170z" />
<glyph unicode="N" horiz-adv-x="1601" d="M156 0v1534h270l864 -1401v1401h170v-1534h-270l-864 1386v-1386h-170z" />
<glyph unicode="O" horiz-adv-x="1456" d="M88 766q0 -252 29 -402t99.5 -233t192 -115t322.5 -32q203 0 325.5 32t192 115t98.5 233t29 402q0 253 -28 403.5t-98 233.5t-191 115t-324 32q-204 0 -326 -32t-192.5 -115t-99.5 -233t-29 -404zM260 766q0 222 15.5 339.5t63 183t137 89t257.5 23.5q166 0 256 -23.5 t137 -88.5t62.5 -183t15.5 -340q0 -220 -16 -337t-63 -182t-137.5 -89.5t-254.5 -24.5t-254.5 24.5t-138 89.5t-64 183.5t-16.5 335.5z" />
<glyph unicode="P" horiz-adv-x="1366" d="M146 0v1534h730q147 0 237.5 -46t130.5 -142t40 -252q0 -189 -47 -295.5t-158 -152.5t-309 -46h-454v-600h-170zM316 750h407q150 0 230.5 22t119.5 88t39 201q0 119 -19.5 187t-75 102t-163.5 34h-538v-634z" />
<glyph unicode="Q" horiz-adv-x="1521" d="M90 766q0 250 29.5 401.5t99.5 234t191.5 114.5t322.5 32q208 0 330 -31t193 -113t100.5 -233t29.5 -405q0 -402 -28 -492l129 -88l-70 -116l-115 78q-47 -56 -102 -89t-122.5 -49t-148.5 -21t-194 -5q-202 0 -324 32t-192.5 115t-99.5 233t-29 402zM262 766 q0 -216 16.5 -335t64 -183.5t136.5 -88.5t254 -24q136 0 212.5 7t128.5 29q52 23 87 67l-477 309l78 121l444 -293q8 40 8 391q0 219 -18 338.5t-67 183.5t-141 87.5t-257 23.5t-255 -23.5t-136 -88.5t-62 -184.5t-16 -336.5z" />
<glyph unicode="R" horiz-adv-x="1431" d="M144 0v1534h728q229 0 338.5 -105t110.5 -343q-1 -120 -16 -196t-72 -131t-176 -77q241 -17 241 -293v-389h-172v348q0 100 -32 158.5t-96 83t-164 24.5h-520v-614h-170zM314 760h501q123 0 193.5 23.5t104.5 86t34 178.5t-28 190t-88.5 108t-158.5 34h-558v-620z" />
<glyph unicode="S" horiz-adv-x="1288" d="M72 402v71h170q0 -122 14 -186t54 -97t117 -44t227 -11q133 0 213.5 16.5t120.5 50.5t53 86t13 138q0 109 -28.5 163.5t-111.5 78.5q-82 24 -256 26q-150 8 -254 28t-175 65t-108 127q-37 80 -37 208q0 118 32.5 199t101 132t174.5 74q108 23 262 23q188 0 303 -32.5 t177 -124t62 -261.5l2 -22h-168q0 88 -15 143t-55 87t-112 46q-72 15 -194 15q-169 0 -254.5 -25.5t-116.5 -81.5t-31 -162q0 -108 39 -162t139 -78q102 -25 310 -36q172 -9 275.5 -45.5t157.5 -123.5t54 -247q0 -138 -30 -225t-96.5 -137t-174.5 -71t-272 -21 q-209 0 -328.5 25t-186.5 115q-67 92 -67 276z" />
<glyph unicode="T" horiz-adv-x="1231" d="M24 1378v156h1172v-156h-498v-1378h-172v1378h-502z" />
<glyph unicode="U" horiz-adv-x="1507" d="M154 454v1080h170v-1075q0 -146 31.5 -211.5t119 -88t281.5 -22.5q195 0 282.5 22.5t119.5 88.5t32 211v1075h170v-1080q0 -216 -66 -317.5t-188 -128.5q-120 -26 -352 -26q-166 0 -269 12t-178 57.5t-114 142t-39 260.5z" />
<glyph unicode="V" horiz-adv-x="1317" d="M-22 1534h184l490 -1397l478 1397h187l-543 -1534h-250z" />
<glyph unicode="W" horiz-adv-x="2357" d="M35 1534h180l418 -1401l415 1401h256l410 -1401l430 1401h182l-485 -1534h-262l-401 1380l-414 -1380h-256z" />
<glyph unicode="X" horiz-adv-x="1405" d="M28 0h210l474 704l476 -704h208l-548 794l504 740h-205l-435 -656l-434 656h-204l504 -740z" />
<glyph unicode="Y" horiz-adv-x="1378" d="M41 1534h191l464 -733l465 733h195l-580 -893v-641h-172v641z" />
<glyph unicode="Z" horiz-adv-x="1304" d="M56 0v152l960 1230h-930v152h1145v-164l-967 -1216h988v-154h-1196z" />
<glyph unicode="[" horiz-adv-x="637" d="M125 -232v1766h393v-131h-223v-1501h223v-134h-393z" />
<glyph unicode="\" horiz-adv-x="1487" d="M162 1534h129l1181 -1760h-124z" />
<glyph unicode="]" horiz-adv-x="637" d="M119 -98h223v1499h-223v133h393v-1766h-393v134z" />
<glyph unicode="^" horiz-adv-x="1151" d="M74 860l401 676h203l402 -676h-170l-334 555l-334 -555h-168z" />
<glyph unicode="_" horiz-adv-x="1151" d="M0 -166h1151v-116h-1151v116z" />
<glyph unicode="`" horiz-adv-x="1151" d="M385 1407l80 113l303 -232l-53 -84z" />
<glyph unicode="a" horiz-adv-x="1165" d="M98 324q0 132 49 203.5t137 96.5t224 25q124 0 194 -12.5t104.5 -38.5t59.5 -74v154q0 134 -23 195t-86 80.5t-204 19.5q-100 0 -152 -13t-75.5 -47.5t-26.5 -103.5l2 -31h-166q0 140 52.5 208t140.5 87t233 19q167 0 265 -27t151 -109t53 -244v-712h-154l6 135 q-38 -68 -79.5 -100.5t-105 -43.5t-175.5 -11q-145 0 -235.5 26t-139.5 101t-49 217zM262 340q0 -92 25.5 -142.5t79.5 -71t145 -20.5q128 0 199 11t114 56t43 141t-29 140t-101 57t-228 13q-132 0 -190 -37t-58 -147z" />
<glyph unicode="b" horiz-adv-x="1163" d="M135 0v1532h164v-582q38 52 78.5 82.5t104.5 46t167 15.5q136 0 220 -41t125 -114t54 -169t13 -238q0 -194 -28.5 -309t-121.5 -179t-278 -64q-97 0 -157.5 14t-102.5 47.5t-84 95.5l6 -137h-160zM299 530q0 -142 7.5 -215.5t36 -119t89 -64.5t170.5 -19q139 0 201.5 45 t77 125t14.5 248q0 171 -15.5 255.5t-80 129.5t-205.5 45q-98 0 -157 -25t-89 -76.5t-39.5 -129.5t-9.5 -199z" />
<glyph unicode="c" horiz-adv-x="1126" d="M106 534q0 214 41 334.5t139 172t277 51.5q146 0 241.5 -29t148.5 -102.5t59 -202.5v-35h-156q0 92 -22 141.5t-84 71.5t-187 22q-124 0 -184.5 -32t-83.5 -119t-23 -269q0 -178 25.5 -268t87 -124t183.5 -34q96 0 153 12.5t88 42.5t44 80.5t19 141.5h158 q-6 -126 -34 -206t-81 -124t-136 -61.5t-211 -17.5q-137 0 -224.5 27.5t-139.5 90t-75 167.5t-23 269z" />
<glyph unicode="d" horiz-adv-x="1179" d="M102 532q0 142 13 238t53 169t124 114t220 41q150 0 222.5 -33t129.5 -111v582h164v-1532h-160l6 137q-42 -62 -84 -95.5t-102 -47.5t-158 -14q-185 0 -277.5 64t-121.5 179t-29 309zM268 530q0 -129 6 -196t33 -118.5t87 -77.5t167 -26q110 0 171 19t89.5 64t35.5 116.5 t7 218.5q0 122 -10 200t-39.5 129t-89 76t-157.5 25q-141 0 -205 -45t-79.5 -128t-15.5 -257z" />
<glyph unicode="e" horiz-adv-x="1145" d="M106 538q0 160 27 266t82.5 169t143 91t215.5 28q250 0 358 -114t108 -390v-82h-772q2 -126 15 -200.5t46 -118t91 -61.5t156 -18q132 0 195 16t85 54t22 115v35h162q0 -148 -51 -224t-148 -100t-265 -24q-184 0 -284.5 49t-143 168t-42.5 341zM270 631h608 q0 126 -28 197t-94 102.5t-182 31.5q-117 0 -182.5 -32t-92.5 -104t-29 -195z" />
<glyph unicode="f" horiz-adv-x="618" d="M16 944v131h164v160q0 121 37 191t112 99t195 29q17 0 50.5 -3t49.5 -3v-133q-39 7 -116 7q-92 0 -128 -41.5t-36 -133.5v-172h280v-131h-280v-944h-164v944h-164z" />
<glyph unicode="g" horiz-adv-x="1161" d="M104 494q0 204 25 326t118 196t285 74q120 0 207 -34t143 -122l-8 137h156v-1141q0 -166 -43 -254t-142.5 -123t-283.5 -35q-120 2 -192.5 15t-124.5 50t-78 106t-26 184h151q3 -74 17 -117.5t42 -65.5t72 -30t118 -8q130 0 198.5 17t102 73t33.5 174v215 q-46 -90 -136 -120.5t-216 -30.5q-168 0 -259 60.5t-125 171.5q-34 112 -34 282zM270 538q0 -130 7 -201t35 -123t88 -77q62 -25 170 -25q98 0 157.5 25t89 76t39.5 128t10 197q0 163 -20 249.5t-85 127.5t-198 41q-108 0 -167.5 -23t-86.5 -71.5t-33 -117t-6 -206.5z" />
<glyph unicode="h" horiz-adv-x="1179" d="M133 0v1532h164v-580q49 89 130 114.5t212 25.5q154 0 240.5 -35t125.5 -120t39 -241v-696h-164v727q0 98 -24 148.5t-78 68.5t-154 18q-134 0 -204 -34t-96.5 -108t-26.5 -208v-612h-164z" />
<glyph unicode="i" horiz-adv-x="440" d="M140 0v1073h163v-1073h-163zM140 1358v176h163v-176h-163z" />
<glyph unicode="j" horiz-adv-x="475" d="M0 -293q14 0 20 -2q88 0 111 48q23 49 23 149v1173h164v-1173q0 -146 -51.5 -233t-188.5 -87q-36 0 -78 12v113zM154 1358v178h164v-178h-164z" />
<glyph unicode="k" horiz-adv-x="1073" d="M170 0v1534h162v-893h66l386 432h197l-457 -493l541 -580h-213l-454 516h-66v-516h-162z" />
<glyph unicode="l" horiz-adv-x="440" d="M140 0v1534h163v-1534h-163z" />
<glyph unicode="m" horiz-adv-x="1880" d="M137 0v1073h154v-161q96 182 354 182q119 0 214 -41t128 -141q105 182 367 182q142 0 225 -38.5t121.5 -122t38.5 -223.5v-710h-164v721q0 138 -50.5 188.5t-191.5 50.5q-313 0 -313 -250v-710h-164v708q-6 105 -25.5 156.5t-71 73.5t-155.5 22q-118 0 -184 -36 t-92.5 -111t-26.5 -197v-616h-164z" />
<glyph unicode="n" horiz-adv-x="1186" d="M135 0v1073h154v-137q56 90 147.5 123t219.5 33q112 0 186 -19t119.5 -62t66 -116t20.5 -185v-710h-164v694q0 111 -20 166.5t-76 76.5t-166 21q-161 0 -242 -70t-81 -230v-658h-164z" />
<glyph unicode="o" horiz-adv-x="1153" d="M104 534q0 224 44 344t144 167t284 47q141 0 228.5 -25t142.5 -86t79 -168t24 -277q0 -168 -24 -276t-79 -169t-144 -86t-227 -25q-137 0 -226 25t-143.5 86t-78.5 169t-24 274zM270 534q0 -181 26 -269.5t90 -120.5t190 -32q97 0 154.5 17t91.5 60t48 125.5t14 221.5 q0 137 -14 218.5t-47.5 125.5t-91 61t-155.5 17q-126 0 -190 -32t-90 -122t-26 -270z" />
<glyph unicode="p" horiz-adv-x="1173" d="M140 -463v1536h159l-6 -137q58 88 142 123t200 35q184 0 278 -64t123 -180t29 -310q0 -142 -13.5 -238t-54.5 -169t-125 -113t-220 -40q-122 0 -208.5 29.5t-140.5 113.5v-586h-163zM303 542q6 -172 24 -256.5t79.5 -129t189.5 -44.5q141 0 205.5 45t80.5 129 q17 84 17 256q0 165 -15 247t-78 126.5t-202 44.5q-141 0 -204.5 -41t-80 -122.5t-16.5 -254.5z" />
<glyph unicode="q" horiz-adv-x="1173" d="M108 540q0 142 15 240.5t58 169t129 107.5t228 37q117 0 200.5 -35t141.5 -123l-6 137h160v-1536h-164v586q-54 -84 -142 -113.5t-210 -29.5q-178 0 -267 68.5t-116 185t-27 306.5zM274 542q0 -174 15.5 -257t79 -128t205.5 -45q99 0 157.5 25.5t88.5 77t40 128.5t10 199 q0 132 -7 203.5t-35 120t-89 71.5t-169 23q-139 0 -202.5 -44.5t-78.5 -126t-15 -247.5z" />
<glyph unicode="r" horiz-adv-x="905" d="M135 0v1073h160l-6 -125q91 152 295 152q163 0 238 -78t75 -242v-63h-159v79q0 95 -44 132.5t-143 37.5q-252 0 -252 -251v-715h-164z" />
<glyph unicode="s" horiz-adv-x="1100" d="M102 338h154q0 -96 28.5 -146t90.5 -68t176 -18q122 0 183.5 16t86.5 58t25 127t-65.5 126t-221.5 46q-141 6 -238 29t-158 89q-61 65 -61 187q0 112 41 179t133 98t250 31q222 0 338 -50q117 -50 117 -208v-40h-162q0 62 -21 98t-80.5 54t-175.5 18q-114 0 -173.5 -15.5 t-83 -50t-23.5 -97.5q0 -72 22 -107.5t88 -51.5t204 -22q141 -6 234.5 -36t145.5 -99t52 -188q0 -128 -47 -197.5t-142 -94.5t-260 -25q-169 0 -265 26t-144 103.5t-48 228.5z" />
<glyph unicode="t" horiz-adv-x="794" d="M12 942v131h142v260h164v-260h413v-131h-413v-658q0 -66 11 -101t43 -51t97 -16q64 0 96.5 15.5t43.5 50.5q11 34 11 102v95h154q0 -164 -20.5 -244.5t-85 -115.5t-201.5 -35q-122 0 -189 28t-95.5 92t-28.5 180v658h-142z" />
<glyph unicode="u" horiz-adv-x="1169" d="M140 322v751h161v-715q0 -97 20.5 -148.5t73 -73.5t152.5 -22q126 0 195.5 31t97.5 101t28 194v633h162v-1073h-150v142q-64 -96 -148 -128t-220 -32q-132 0 -213 31.5t-120 105.5q-39 75 -39 203z" />
<glyph unicode="v" horiz-adv-x="975" d="M16 1073l359 -1073h225l358 1073h-174l-298 -952l-296 952h-174z" />
<glyph unicode="w" horiz-adv-x="1562" d="M22 1073h166l246 -965l236 965h233l233 -965l246 965h168l-300 -1073h-234l-232 960l-231 -960h-237z" />
<glyph unicode="x" horiz-adv-x="975" d="M0 0h196l277 434l277 -434h196l-383 561l342 512h-188l-244 -393l-243 393h-189l342 -512z" />
<glyph unicode="y" horiz-adv-x="960" d="M18 1073h164l336 -954l246 954h166l-330 -1217q-36 -136 -80 -209t-102 -103t-144 -30q-54 0 -92 13v131q30 -8 62 -8q64 1 99 24.5t64 95.5t72 230h-69z" />
<glyph unicode="z" horiz-adv-x="927" d="M47 2v150l641 792h-586v131h776v-147l-640 -797h640v-129h-831z" />
<glyph unicode="{" horiz-adv-x="1149" d="M316 500v137q132 36 132 213v402q0 124 42 192t120 93t199 25q23 0 33 -2v-157q-122 -3 -171 -47t-49 -164v-368q0 -101 -23 -160t-101 -99q74 -40 99 -105.5t25 -160.5v-359q0 -86 20 -133t68 -68t132 -21v-148q-112 0 -181.5 11t-117 46t-71.5 103t-24 182v366 q0 93 -27 146.5t-105 75.5z" />
<glyph unicode="|" horiz-adv-x="1149" d="M490 -381v1915h176v-1915h-176z" />
<glyph unicode="}" horiz-adv-x="1149" d="M309 -274q84 5 130.5 24.5t67.5 64.5t21 125v369q0 100 24.5 160t99.5 99q-74 41 -99 104.5t-25 161.5v358q0 85 -20.5 132.5t-67.5 67.5t-131 23v147q152 0 231.5 -19.5t120.5 -92.5q41 -74 41 -230v-366q0 -92 28 -145t106 -78v-135q-74 -20 -104 -74t-30 -140v-401 q0 -180 -86.5 -245.5t-273.5 -65.5q-22 0 -33 2v154z" />
<glyph unicode="~" horiz-adv-x="1149" d="M20 676q123 258 316 258q75 0 158.5 -42t167.5 -84t159 -42q112 0 207 172l96 -76q-53 -110 -133.5 -184t-185.5 -74q-57 0 -108.5 19.5t-126 60t-123.5 61.5t-103 27q-76 0 -127.5 -44.5t-100.5 -127.5z" />
<glyph unicode="&#xa3;" horiz-adv-x="733" d="M110 -137q58 3 79.5 27t21.5 82q0 20 -2 28h-76v211h183v-225q0 -106 -32 -159t-128 -53q-6 0 -20 2q-14 1 -26 1v86zM432 -137q58 3 80 27t22 82q0 20 -2 28h-76v211h181v-225q0 -106 -32 -159t-128 -53q-6 0 -19.5 1.5t-25.5 1.5v86z" />
<glyph unicode="&#xa5;" horiz-adv-x="1407" d="M76 1534h200l426 -719l424 719h205l-299 -490h209v-141h-297l-141 -227h438v-142h-459v-534h-172v534h-442v142h422l-138 227h-284v141h200z" />
<glyph unicode="&#xa8;" horiz-adv-x="1218" d="M142 0v1534h986v-154h-819v-520h783v-152h-783v-556h815v-152h-982zM377 1636v176h163v-176h-163zM686 1636v176h164v-176h-164z" />
<glyph unicode="&#xa9;" horiz-adv-x="1800" d="M108 766q0 214 107 396.5t289.5 289t396.5 106.5q213 0 395 -107t289 -289t107 -396t-107 -396t-289 -289t-395 -107q-214 0 -396 106.5t-289.5 289t-107.5 396.5zM205 766q0 -189 93 -351.5t253 -257.5t350 -95q188 0 348.5 95.5t253.5 258t93 350.5t-93 350t-252.5 257 t-349.5 95t-350 -95t-253 -257t-93 -350zM467 764q0 130 53.5 239t153.5 173q102 63 234 63q96 0 185.5 -37.5t149 -109.5t70.5 -168h-97q-22 104 -110.5 159t-200.5 55q-101 0 -174 -52t-110 -137t-37 -185q0 -98 38 -181t111 -132t172 -49q134 0 221.5 74t104.5 204h94 q-10 -113 -66.5 -199.5t-148.5 -134t-205 -47.5q-130 0 -230 61.5t-154 168t-54 235.5z" />
<glyph unicode="&#xab;" horiz-adv-x="1030" d="M116 592l275 586l119 -72l-242 -514l270 -518l-114 -74zM492 592l278 586l117 -72l-242 -514l269 -518l-111 -74z" />
<glyph unicode="&#xad;" horiz-adv-x="1186" d="M82 534v97h1010v-97h-1010z" />
<glyph unicode="&#xae;" horiz-adv-x="1800" d="M108 766q0 214 107 396.5t289.5 289t396.5 106.5q213 0 395 -107t289 -289t107 -396t-107 -396t-289 -289t-395 -107q-214 0 -396 106.5t-289.5 289t-107.5 396.5zM205 766q0 -189 93 -351.5t253 -257.5t350 -95q188 0 348.5 95.5t253.5 258t93 350.5t-93 350t-252.5 257 t-349.5 95t-350 -95t-253 -257t-93 -350zM565 307v932h445q98 0 157.5 -26.5t87 -85.5t27.5 -159q0 -79 -8 -122t-42 -76t-110 -47q148 -15 148 -181v-237h-104v215q0 88 -42 124t-135 36h-319v-373h-105zM670 766l305 2q110 0 155.5 36t45.5 138q0 79 -10 120.5t-44.5 63 t-107.5 21.5h-344v-381z" />
<glyph unicode="&#xb4;" horiz-adv-x="1151" d="M385 1288l303 232l80 -113l-328 -203z" />
<glyph unicode="&#xb8;" horiz-adv-x="1155" d="M116 540q0 160 27 266t82.5 169t143 91t215.5 28q168 0 269 -48.5t149 -159t48 -296.5v-82h-772q2 -126 15 -200t46 -117.5t91 -61t156 -17.5q131 0 194.5 15t86 53t22.5 115v35h161q0 -148 -51 -223t-148 -99t-265 -24q-184 0 -284.5 48t-143.5 168q-42 118 -42 340z M280 633h609q0 126 -28.5 197.5t-94.5 102.5t-182 31q-117 0 -182.5 -32t-92.5 -104t-29 -195zM348 1358v176h164v-176h-164zM660 1358v176h164v-176h-164z" />
<glyph unicode="&#xbb;" horiz-adv-x="1030" d="M116 74l267 518l-241 514l118 72l278 -586l-312 -592zM492 74l268 518l-242 514l121 72l275 -586l-310 -592z" />
<glyph unicode="&#x410;" horiz-adv-x="1474" d="M53 0l559 1534h248l572 -1534h-182l-116 316h-774l-122 -316h-185zM402 465h678l-340 942z" />
<glyph unicode="&#x411;" horiz-adv-x="1399" d="M150 0v1534h1014v-152h-844v-498h512q168 0 267 -45t144 -142t45 -259q0 -157 -46 -253t-145 -140.5t-261 -44.5h-686zM320 154h504q120 0 183 28t86 88t23 168q0 119 -28.5 181.5t-96 87t-193.5 24.5h-478v-577z" />
<glyph unicode="&#x412;" horiz-adv-x="1417" d="M146 0v1534h738q202 0 296 -87.5t94 -291.5q0 -98 -13 -161.5t-55 -111.5t-124 -77q99 -28 150 -73.5t69 -113.5t18 -178q0 -218 -89.5 -329t-301.5 -111h-782zM316 154h472q110 0 174 9t105.5 37t60.5 83t19 149q0 125 -24.5 184.5t-83.5 79t-179 19.5h-544v-561z M316 864h487q116 0 180 24t91.5 83t27.5 169q0 140 -50 191t-188 51h-548v-518z" />
<glyph unicode="&#x413;" horiz-adv-x="1116" d="M146 0h172v1378h776v156h-948v-1534z" />
<glyph unicode="&#x414;" horiz-adv-x="1521" d="M66 152h94q58 86 92 177t49 193t15 222v790h1042v-1382h110v-504h-155v352h-1092v-352h-155v504zM352 152h836v1228h-704v-614q0 -120 -7.5 -206t-23 -155.5t-40.5 -130t-61 -122.5z" />
<glyph unicode="&#x415;" horiz-adv-x="1218" d="M142 0v1534h986v-152h-816v-522h780v-150h-780v-556h812v-154h-982z" />
<glyph unicode="&#x416;" horiz-adv-x="2298" d="M84 0l688 788l-578 746h214l518 -670h149v670h172v-670h147l521 670h211l-578 -746l688 -788h-246l-596 712h-147v-712h-172v712h-149l-596 -712h-246z" />
<glyph unicode="&#x417;" horiz-adv-x="1399" d="M121 408v51h163v-49q0 -124 34 -181t123 -76.5t278 -19.5q130 0 212.5 18.5t127.5 55t63 91t18 134.5q0 139 -74 207.5t-242 68.5h-357v150h346q124 0 187.5 22.5t88.5 82.5q25 59 25 177q0 98 -38 154.5t-123 80.5t-234 24q-160 0 -243.5 -26.5t-118.5 -91.5t-43 -191 h-166q6 147 41 237t103 138.5t169 65.5t258 17q205 0 329 -37.5t181 -122.5t57 -227q0 -178 -60 -264q-60 -87 -196 -107q162 -22 222 -110q61 -88 61 -272q0 -157 -60.5 -249.5t-189.5 -133.5t-344 -41q-240 0 -367 37t-179 127q-52 92 -52 260z" />
<glyph unicode="&#x418;" horiz-adv-x="1607" d="M142 0v1534h170v-1418l872 1418h272v-1534h-170v1403l-874 -1403h-270z" />
<glyph unicode="&#x419;" horiz-adv-x="1601" d="M135 0v1534h170v-1415l873 1415h272v-1534h-170v1405l-874 -1405h-271zM452 1806q0 -94 32 -144t99 -69.5t183 -19.5q124 0 192 19.5t97 69.5t29 144h-120q0 -56 -24 -81.5t-62 -31t-112 -5.5q-72 0 -110 5.5t-62 31.5q-24 25 -24 81h-118z" />
<glyph unicode="&#x41a;" horiz-adv-x="1431" d="M150 0v1534h170v-670h153l625 670h229l-705 -742l787 -792h-235l-703 712h-151v-712h-170z" />
<glyph unicode="&#x41b;" horiz-adv-x="1495" d="M35 0v152h41q71 0 109.5 20t57.5 79.5t19 178.5v1102h1082v-1532h-170v1378h-742v-930q0 -227 -66 -337.5t-222 -110.5h-109z" />
<glyph unicode="&#x41c;" horiz-adv-x="1974" d="M160 0v1536h284l541 -1317l545 1317h280v-1536h-170v1411l-579 -1411h-147l-584 1396v-1396h-170z" />
<glyph unicode="&#x41d;" horiz-adv-x="1534" d="M148 0v1532h170v-676h896v676h170v-1532h-170v706h-896v-706h-170z" />
<glyph unicode="&#x41e;" horiz-adv-x="1456" d="M88 766q0 -252 29 -402t99.5 -233t192 -115t322.5 -32q203 0 325.5 32t192 115t98.5 233t29 402q0 253 -28 403.5t-98 233.5t-191 115t-324 32q-204 0 -326 -32t-192.5 -115t-99.5 -233t-29 -404zM260 766q0 222 15.5 339.5t63 183t137 89t257.5 23.5q166 0 256 -23.5 t137 -88.5t62.5 -183t15.5 -340q0 -220 -16 -337t-63 -182t-137.5 -89.5t-254.5 -24.5t-254.5 24.5t-138 89.5t-64 183.5t-16.5 335.5z" />
<glyph unicode="&#x41f;" horiz-adv-x="1534" d="M148 0v1532h1236v-1532h-170v1378h-896v-1378h-170z" />
<glyph unicode="&#x420;" horiz-adv-x="1366" d="M146 0v1534h730q137 0 227.5 -46.5t135.5 -145t45 -248.5q0 -186 -51 -294t-163 -154t-300 -46h-454v-600h-170zM316 750h407q150 0 230.5 22t119.5 88t39 201q0 178 -55 249.5t-203 71.5h-538v-632z" />
<glyph unicode="&#x421;" horiz-adv-x="1358" d="M86 762q0 245 31 398t100.5 238t184 118.5t296.5 33.5t295 -29t174 -90t86 -151q25 -92 33 -234l-166 2q-16 152 -45 221t-113 100.5t-264 31.5q-136 0 -219 -26.5t-131.5 -95t-69 -192t-20.5 -325.5q0 -204 20 -324.5t68.5 -187.5t131.5 -92q82 -25 220 -25 q139 0 224.5 17.5t133 58.5t66 113t18.5 190h166q0 -204 -52 -317t-183 -162t-373 -49q-184 0 -297.5 32t-183 114t-100.5 234t-31 398z" />
<glyph unicode="&#x422;" horiz-adv-x="1231" d="M24 1378v156h1172l-2 -156h-496v-1378h-172v1378h-502z" />
<glyph unicode="&#x423;" horiz-adv-x="1351" d="M41 1534h185l472 -1063l432 1063h176l-536 -1294q-96 -240 -286 -240h-160v150h100q79 0 116.5 30t65.5 113z" />
<glyph unicode="&#x424;" horiz-adv-x="1786" d="M94 788q0 -206 56.5 -329t170.5 -178q113 -55 293 -55h191v-226h172v226h195q178 0 291 55t170 179t57 328t-57 328.5t-171 180t-290 55.5h-195v182h-172v-182h-191q-178 0 -292.5 -55.5t-171 -179t-56.5 -329.5zM264 788q0 149 33.5 239.5t113 133.5t215.5 43h179v-832 h-179q-137 0 -216 43.5t-112.5 134t-33.5 238.5zM977 372v832h178q198 0 280.5 -98t82.5 -318t-83 -318t-280 -98h-178z" />
<glyph unicode="&#x425;" horiz-adv-x="1405" d="M28 0l550 794l-504 740h204l434 -656l435 656h205l-504 -740l548 -794h-208l-476 704l-474 -704h-210z" />
<glyph unicode="&#x426;" horiz-adv-x="1544" d="M148 0v1534h170v-1380h896v1380h170v-1380h113v-506h-157v352h-1192z" />
<glyph unicode="&#x427;" horiz-adv-x="1464" d="M123 1176v358h170v-389q0 -108 22.5 -170.5t69.5 -91.5t115 -37t186 -8q310 0 422 28v668h170v-1534h-170v721q-131 -35 -463 -35q-160 0 -260.5 22.5t-157.5 76.5t-81 147q-23 94 -23 244z" />
<glyph unicode="&#x428;" horiz-adv-x="2371" d="M146 0v1536h170v-1384h782v1384h170v-1384h782v1384h170v-1536h-2074z" />
<glyph unicode="&#x429;" horiz-adv-x="2406" d="M148 0v1534h170v-1380h782v1380h170v-1380h780v1380h170v-1380h108v-506h-151v352h-2029z" />
<glyph unicode="&#x42a;" horiz-adv-x="1515" d="M0 1384v150h278h170v-650h510q126 0 215 -25t142.5 -77t79 -136t25.5 -208q0 -116 -26.5 -199.5t-81.5 -136t-141 -77.5q-87 -25 -209 -25h-684v1384h-278zM448 154h506q119 0 182.5 28t87 88t23.5 168q0 118 -29 181t-97 87q-67 25 -193 25h-480v-577z" />
<glyph unicode="&#x42b;" horiz-adv-x="1865" d="M154 0v1534h170v-650h512q169 0 268.5 -45t143.5 -143t44 -258q0 -157 -45.5 -252.5t-145 -140.5t-261.5 -45h-686zM324 154h506q118 0 181 28t86 88t23 168q0 119 -28.5 181.5t-96 87t-192.5 24.5h-479v-577zM1538 0v1534h170v-1534h-170z" />
<glyph unicode="&#x42c;" horiz-adv-x="1409" d="M160 0v1534h170v-650h500q169 0 271.5 -45t149.5 -143t47 -258q0 -157 -45.5 -253t-145 -140.5t-261.5 -44.5h-686zM330 154h504q120 0 183 28t86 88t23 168q0 113 -25.5 175.5t-92 90t-191.5 27.5h-487v-577z" />
<glyph unicode="&#x42d;" horiz-adv-x="1394" d="M88 471h166q0 -139 41 -211t136 -99.5t267 -27.5q144 0 230 30.5t130.5 97t59.5 172.5q16 105 16 277h-698v150h698q0 220 -44 337t-137 159.5t-255 42.5t-246.5 -26.5t-122.5 -92.5t-53 -198h-166q11 184 72.5 285t184.5 141t331 40q184 0 298.5 -33t183 -116t98.5 -236 t30 -401t-31 -398t-99.5 -233t-183 -115t-296.5 -32q-234 0 -365 46t-188 151t-57 290z" />
<glyph unicode="&#x42e;" horiz-adv-x="1943" d="M135 0v1534h170v-674h326q0 222 34 358t104.5 208t180.5 98t283 26q232 0 355.5 -53.5t182.5 -221t60 -507.5q0 -258 -33.5 -413t-104 -235.5t-179 -108t-281.5 -27.5q-174 0 -283.5 27t-180 102t-104.5 219t-34 378h-326v-710h-170zM803 768q0 -218 20.5 -343.5 t68.5 -190t126.5 -86t214.5 -21.5q122 0 199 22t127.5 86t75 192.5t24.5 340.5q-2 281 -45.5 416.5t-130.5 178t-250 42.5q-137 0 -215 -21t-126 -84.5t-68.5 -188.5t-20.5 -343z" />
<glyph unicode="&#x42f;" horiz-adv-x="1431" d="M84 0l362 635q-153 28 -246.5 143.5t-93.5 307.5q0 234 123 341t369 107h680v-1534h-170v612h-475l-342 -612h-207zM278 1048q0 -140 94.5 -214t272.5 -74h463v620h-545q-158 0 -221.5 -80t-63.5 -252z" />
<glyph unicode="&#x430;" horiz-adv-x="1165" d="M98 324q0 132 49 203.5t137 96.5t224 25q124 0 194 -12.5t104.5 -38.5t59.5 -74v154q0 134 -23 195t-86 80.5t-204 19.5q-100 0 -152 -13t-75.5 -47.5t-26.5 -103.5l2 -31h-166q0 140 52.5 208t140.5 87t233 19q167 0 265 -27t151 -109t53 -244v-712h-154l6 135 q-38 -68 -79.5 -100.5t-105 -43.5t-175.5 -11q-145 0 -235.5 26t-139.5 101t-49 217zM262 340q0 -92 25.5 -142.5t79.5 -71t145 -20.5q128 0 199 11t114 56t43 141t-29 140t-101 57t-228 13q-132 0 -190 -37t-58 -147z" />
<glyph unicode="&#x431;" horiz-adv-x="1165" d="M104 532v332q0 534 432 535q135 0 191.5 5.5t74 22.5t17.5 60h137q0 -90 -36 -135.5t-112.5 -62.5t-211.5 -17q-114 0 -189 -31t-117 -117t-42 -240q44 86 120 127q78 41 206 41q190 0 293 -52.5t143 -163.5q40 -112 40 -304q0 -149 -19 -248.5t-69 -167.5t-144 -102 q-92 -34 -242 -34q-149 0 -241.5 34t-142.5 102.5t-69 169t-19 246.5zM270 530q0 -164 24 -251t90 -127t196 -40t194.5 40t87 128t22.5 252q0 160 -25 242t-90 114t-195 32q-124 0 -188 -33t-90 -116t-26 -241z" />
<glyph unicode="&#x432;" horiz-adv-x="1149" d="M137 2v1073h543q161 0 248.5 -59.5t87.5 -217.5q0 -82 -48 -144q-49 -60 -149 -78q215 -52 215 -262q0 -176 -85 -244t-241 -68h-571zM301 129h379q190 1 190 185q0 104 -49 144t-141 40h-379v-369zM301 622h375q99 0 137.5 37t38.5 127q0 93 -41 127.5t-135 34.5h-375 v-326z" />
<glyph unicode="&#x433;" horiz-adv-x="893" d="M137 0v1073h723v-131h-559v-942h-164z" />
<glyph unicode="&#x434;" horiz-adv-x="1145" d="M39 131h98q41 68 63 130.5t31 139.5t9 187v485h760v-942h112v-436h-150v305h-774v-305h-149v436zM309 131h527v811h-434v-385q0 -274 -93 -426z" />
<glyph unicode="&#x435;" horiz-adv-x="1145" d="M106 538q0 160 27 266t82.5 169t143 91t215.5 28q250 0 358 -114t108 -390v-82h-772q2 -126 15 -200.5t46 -118t91 -61.5t156 -18q132 0 195 16t85 54t22 115v35h162q0 -148 -51 -224t-148 -100t-265 -24q-184 0 -284.5 49t-143 168t-42.5 341zM270 631h608 q0 126 -28 197t-94 102.5t-182 31.5q-117 0 -182.5 -32t-92.5 -104t-29 -195z" />
<glyph unicode="&#x436;" horiz-adv-x="1530" d="M22 0l480 578l-396 495h178l338 -432h64v432h162v-432h62l337 432h179l-396 -495l480 -578h-193l-407 516h-62v-516h-162v516h-64l-407 -516h-193z" />
<glyph unicode="&#x437;" horiz-adv-x="1112" d="M106 326h156q0 -96 20 -140t80.5 -61t190.5 -17q127 0 188.5 18t82.5 60q20 42 20 126q0 178 -186 178h-242v130h242q168 0 168 176q0 84 -52 126t-204 42q-108 0 -164 -10t-83.5 -46t-27.5 -110v-18h-155v18q0 91 28 149t83 90.5t129 44.5t179 12q158 0 251.5 -31.5 t135 -94t41.5 -159.5q0 -88 -45 -160.5t-141 -89.5q205 -31 205 -243q0 -125 -40.5 -197.5t-135 -105.5t-260.5 -33q-186 0 -285.5 32t-139 106t-39.5 208z" />
<glyph unicode="&#x438;" horiz-adv-x="1183" d="M133 0v1073h162v-879l551 879h198v-1073h-162v872l-546 -872h-41h-162z" />
<glyph unicode="&#x439;" horiz-adv-x="1181" d="M133 0v1073h162v-877l549 877h200v-1073h-162v874l-546 -874h-41h-162zM346 1362h100q0 -44 14.5 -66t44 -29t83.5 -7q52 0 82 7t44.5 29t14.5 66h101q0 -80 -24 -123t-75.5 -60.5t-142.5 -17.5q-92 0 -143.5 17.5t-75 60.5t-23.5 123z" />
<glyph unicode="&#x43a;" horiz-adv-x="1073" d="M170 0v1073h164v-432h64l386 432h197l-457 -493l541 -580h-213l-454 516h-64v-516h-164z" />
<glyph unicode="&#x43b;" horiz-adv-x="1091" d="M2 0h80q258 0 258 309v635h458v-944h164v1073h-786v-759q0 -114 -29 -147t-121 -34h-24v-133z" />
<glyph unicode="&#x43c;" horiz-adv-x="1487" d="M127 0v1073h258l357 -887l356 887h260v-1073h-162v932l-383 -932h-143l-381 932v-932h-162z" />
<glyph unicode="&#x43d;" horiz-adv-x="1165" d="M135 0v1073h164v-438h563v438h164v-1073h-164v504h-563v-504h-164z" />
<glyph unicode="&#x43e;" horiz-adv-x="1153" d="M104 534q0 224 44 344t144 167t284 47q141 0 228.5 -25t142.5 -86t79 -168t24 -277q0 -168 -24 -276t-79 -169t-144 -86t-227 -25q-137 0 -226 25t-143.5 86t-78.5 169t-24 274zM270 534q0 -181 26 -269.5t90 -120.5t190 -32q97 0 154.5 17t91.5 60t48 125.5t14 221.5 q0 137 -14 218.5t-47.5 125.5t-91 61t-155.5 17q-126 0 -190 -32t-90 -122t-26 -270z" />
<glyph unicode="&#x43f;" horiz-adv-x="1161" d="M133 0v1073h891v-1073h-164v942h-563v-942h-164z" />
<glyph unicode="&#x440;" horiz-adv-x="1173" d="M140 -463v1536h159l-6 -137q58 88 142 123t200 35q184 0 278 -64t123 -180t29 -310q0 -142 -13.5 -238t-54.5 -169t-125 -113t-220 -40q-122 0 -208.5 29.5t-140.5 113.5v-586h-163zM303 542q6 -172 24 -256.5t79.5 -129t189.5 -44.5q141 0 205.5 45t80.5 129 q17 84 17 256q0 165 -15 247t-78 126.5t-202 44.5q-141 0 -204.5 -41t-80 -122.5t-16.5 -254.5z" />
<glyph unicode="&#x441;" horiz-adv-x="1126" d="M106 534q0 214 41 334.5t139 172t277 51.5q146 0 241.5 -29t148.5 -102.5t59 -202.5v-35h-156q0 92 -22 141.5t-84 71.5t-187 22q-124 0 -184.5 -32t-83.5 -119t-23 -269q0 -178 25.5 -268t87 -124t183.5 -34q96 0 153 12.5t88 42.5t44 80.5t19 141.5h158 q-6 -126 -34 -206t-81 -124t-136 -61.5t-211 -17.5q-137 0 -224.5 27.5t-139.5 90t-75 167.5t-23 269z" />
<glyph unicode="&#x442;" horiz-adv-x="938" d="M14 942h371v-942h164v942h371v131h-906v-131z" />
<glyph unicode="&#x443;" horiz-adv-x="960" d="M18 1073h164l336 -954l246 954h166l-330 -1217q-36 -136 -80 -209t-102 -103t-144 -30q-54 0 -92 13v131q30 -8 62 -8q64 1 99 24.5t64 95.5t72 230h-69z" />
<glyph unicode="&#x444;" horiz-adv-x="1689" d="M104 542q0 200 22 312t100 175t239 63q204 0 295 -166v610h164v-610q52 88 125 127t178 39q156 0 231.5 -62.5t97.5 -175.5q23 -114 23 -312q0 -149 -10 -243t-43.5 -167t-106.5 -113.5t-192 -40.5q-100 0 -183.5 52t-119.5 142v-635h-164v631q-25 -60 -71.5 -102.5 t-108.5 -65t-130 -22.5q-118 0 -189 40t-104 114t-43 168t-10 242zM270 578q0 -173 20 -272t73 -147.5t153 -48.5q98 0 151 48t73 146t20 270q0 136 -22 219.5t-75.5 124t-146.5 40.5q-144 0 -195 -89t-51 -291zM924 574q0 -170 19 -269t71 -147q54 -48 152 -48 q100 0 153 49t73.5 149t20.5 270q0 202 -51.5 291t-195.5 89q-93 0 -146 -40t-74.5 -124t-21.5 -220z" />
<glyph unicode="&#x445;" horiz-adv-x="975" d="M0 0h196l277 434l277 -434h196l-383 561l342 512h-188l-244 -393l-243 393h-189l342 -512z" />
<glyph unicode="&#x446;" horiz-adv-x="1194" d="M137 0v1075h164v-944h561v944h164v-944h112v-436h-149v305h-852z" />
<glyph unicode="&#x447;" horiz-adv-x="1122" d="M140 766v309h163v-272q0 -88 19 -131t67 -58q47 -16 145 -16q184 0 277 49v428h164v-1075h-164v555h-8q-37 -54 -97 -72t-218 -18q-116 0 -193 28.5t-116 95.5t-39 177z" />
<glyph unicode="&#x448;" horiz-adv-x="1784" d="M140 0v1073h163v-942h506v942h164v-942h505v942h164v-1073h-1502z" />
<glyph unicode="&#x449;" horiz-adv-x="1784" d="M140 0v1073h163v-942h506v942h164v-942h505v942h164v-942h115v-436h-151v305h-1466z" />
<glyph unicode="&#x44a;" horiz-adv-x="1198" d="M10 942h213v-942h555q140 0 228 78t88 244q0 322 -316 321h-393v430h-375v-131zM385 131v379h334q80 0 124.5 -16.5t64.5 -58t20 -115.5q0 -108 -45 -148.5t-160 -40.5h-338z" />
<glyph unicode="&#x44b;" horiz-adv-x="1476" d="M133 -2h557q140 0 227 78t87 244q0 322 -314 321h-395v432h-162v-1075zM295 131v379h333q80 0 125 -16.5t65 -58t20 -115.5q0 -108 -45 -148.5t-160 -40.5h-338zM1206 -2h164v1075h-164v-1075z" />
<glyph unicode="&#x44c;" horiz-adv-x="1112" d="M140 0h556q140 0 227 77t87 243q0 322 -314 321h-393v432h-163v-1073zM303 131v379h332q118 0 163.5 -40t45.5 -150q0 -108 -45 -148.5t-158 -40.5h-338z" />
<glyph unicode="&#x44d;" horiz-adv-x="1147" d="M114 328h160q8 -88 35 -134.5t91 -67.5q64 -20 182 -20q128 0 189 34t82 116t21 250h-460v131h460q0 128 -23.5 196.5t-86.5 98.5q-62 30 -182 30q-111 0 -170.5 -15t-86.5 -54t-39 -115h-153q16 128 68.5 195t142.5 92q92 25 238 27q176 0 274.5 -48t141 -166t42.5 -338 q0 -170 -20 -275t-70.5 -168.5t-138.5 -90.5q-87 -28 -229 -28q-175 0 -275.5 41t-142.5 116t-50 193z" />
<glyph unicode="&#x44e;" horiz-adv-x="1609" d="M140 0v1073h163v-436h254q8 138 34 223.5t78.5 136.5t137.5 73t221 22q140 0 228 -23t143.5 -82t81 -167t25.5 -284q0 -175 -25.5 -283t-81 -167.5t-144.5 -82.5t-227 -23t-225.5 22.5t-141.5 79.5t-79 158.5t-25 265.5h-254v-506h-163zM723 534q0 -140 13 -220.5 t45.5 -124t89.5 -60.5t157 -17q101 0 160 17t91.5 60t46.5 125t14 222q0 178 -25 267t-90 122t-197 33q-100 0 -157 -16.5t-89.5 -61t-45.5 -125.5t-13 -221z" />
<glyph unicode="&#x44f;" horiz-adv-x="1097" d="M78 0h184l213 432h323v-432h164v1073h-556q-91 0 -162.5 -31.5t-113.5 -102.5t-42 -185q0 -82 32 -148.5t83 -105.5q51 -40 109 -48zM254 754q0 102 47 145t158 43h339v-379h-335q-80 0 -125 15.5t-64.5 56.5t-19.5 119z" />
<glyph unicode="&#x2000;" horiz-adv-x="906" />
<glyph unicode="&#x2001;" horiz-adv-x="1812" />
<glyph unicode="&#x2002;" horiz-adv-x="906" />
<glyph unicode="&#x2003;" horiz-adv-x="1812" />
<glyph unicode="&#x2004;" horiz-adv-x="604" />
<glyph unicode="&#x2005;" horiz-adv-x="453" />
<glyph unicode="&#x2006;" horiz-adv-x="302" />
<glyph unicode="&#x2007;" horiz-adv-x="302" />
<glyph unicode="&#x2008;" horiz-adv-x="226" />
<glyph unicode="&#x2009;" horiz-adv-x="362" />
<glyph unicode="&#x200a;" horiz-adv-x="100" />
<glyph unicode="&#x2010;" horiz-adv-x="1186" d="M82 534v97h1010v-97h-1010z" />
<glyph unicode="&#x2011;" horiz-adv-x="1186" d="M82 534v97h1010v-97h-1010z" />
<glyph unicode="&#x2012;" horiz-adv-x="1186" d="M82 534v97h1010v-97h-1010z" />
<glyph unicode="&#x2013;" horiz-adv-x="1407" d="M90 486v149h1227v-149h-1227z" />
<glyph unicode="&#x2014;" horiz-adv-x="1603" d="M0 486v149h1604v-149h-1604z" />
<glyph unicode="&#x2018;" horiz-adv-x="413" d="M98 1100v225q0 106 32 158.5t126 52.5q9 0 23.5 -1t21.5 -1v-88q-57 -3 -79 -27.5t-22 -80.5q0 -6 1.5 -14t1.5 -16h75v-208h-180z" />
<glyph unicode="&#x2019;" horiz-adv-x="401" d="M98 1100v88q56 3 78 27.5t22 80.5q0 5 -1 15.5t-1 13.5h-75v209h180v-226q0 -106 -31.5 -158t-125.5 -52q-8 0 -22 1t-24 1z" />
<glyph unicode="&#x201a;" horiz-adv-x="409" d="M110 -137q56 3 78.5 27t22.5 82q0 20 -2 28h-76v211h181v-225q0 -106 -32 -159t-126 -53q-8 0 -21 1.5t-25 1.5v86z" />
<glyph unicode="&#x201c;" horiz-adv-x="717" d="M96 1100v225q0 106 32 158.5t128 52.5q8 0 22 -1t23 -1v-88q-58 -3 -81 -27q-22 -23 -22 -81q0 -6 1 -16t1 -14h76v-208h-180zM420 1100v225q0 69 12.5 114.5t47.5 70.5q36 26 100 26q8 0 23 -1t21 -1v-88q-58 -3 -79 -26.5t-21 -81.5q0 -6 1 -16t1 -14h76v-208h-182z " />
<glyph unicode="&#x201d;" horiz-adv-x="717" d="M98 1100v88q58 3 79 26.5t21 81.5q0 5 -1 15.5t-1 13.5h-75v209h182v-226q0 -105 -32.5 -157.5t-126.5 -52.5q-8 0 -22 1t-24 1zM422 1100v88q58 3 80 27q22 23 22 81q0 8 -1 17t-1 12h-76v209h180v-226q0 -106 -32 -158t-127 -52q-7 0 -20 1t-25 1z" />
<glyph unicode="&#x201e;" horiz-adv-x="733" d="M110 -137q58 3 79.5 27t21.5 82q0 20 -2 28h-76v211h183v-225q0 -106 -32 -159t-128 -53q-6 0 -20 2q-14 1 -26 1v86zM432 -137q58 3 80 27t22 82q0 20 -2 28h-76v211h181v-225q0 -106 -32 -159t-128 -53q-6 0 -19.5 1.5t-25.5 1.5v86z" />
<glyph unicode="&#x2022;" horiz-adv-x="1380" d="M456 658q0 93 65 156.5t157 63.5q94 0 159.5 -64t65.5 -156t-65.5 -157t-159.5 -65q-92 0 -157 65t-65 157z" />
<glyph unicode="&#x2026;" horiz-adv-x="1374" d="M137 0v207h185v-207h-185zM596 0v207h182v-207h-182zM1054 0v207h183v-207h-183z" />
<glyph unicode="&#x202f;" horiz-adv-x="362" />
<glyph unicode="&#x2039;" horiz-adv-x="655" d="M116 592l277 586l117 -72l-242 -514l268 -518l-112 -74z" />
<glyph unicode="&#x203a;" horiz-adv-x="631" d="M116 74l267 518l-241 514l120 72l274 -586l-308 -592z" />
<glyph unicode="&#x205f;" horiz-adv-x="453" />
<glyph unicode="&#x2122;" horiz-adv-x="1691" d="M26 1448v84h617v-84h-262v-727h-90v727h-265zM725 721v811h149l287 -694l289 694h148v-811h-90v745l-308 -745h-78l-307 739v-739h-90z" />
<glyph unicode="&#x25fc;" horiz-adv-x="1072" d="M0 0v1072h1072v-1072h-1072z" />
</font>
</defs>
</svg>
